<svg style="position: absolute; width: 0; height: 0; overflow: hidden;" aria-hidden="true" version="1.1" xmlns="http://www.w3.org/2000/svg" xmlns:xlink="http://www.w3.org/1999/xlink">
    <style>
        .default-palette, .palette0 {color: currentColor;
            --color0: #2e2f42;
            --color1: #4d5ae5;
            --color2: #fff;
            --color3: #e7e9fc;
            --color4: #f4f4fd;
            --color5: #434455;
            --color6: #404bbf;
        }
    </style>
    <defs>
        <symbol id="icon-menu" viewBox="0 0 320 640" fill="var(--color1, #4d5ae5)">
            <rect fill="var(--color2, #fff)" width="320" height="640" />
            <rect fill="var(--color3, #e7e9fc)" width="24" height="24" rx="12" x="272" y="24" />
            <rect stroke="var(--color0, #2e2f42)" stroke-opacity="0.4" fill="none" width="23" height="23" rx="11.5" x="272.5" y="24.5" />
            <path fill="var(--color0, #2e2f42)" d="M288 32.8057 287.194 32 284 35.1943 280.806 32 280 32.8057 283.194 36 280 39.1943 280.806 40 284 36.8057 287.194 40 288 39.1943 284.806 36z" />
            <path fill="var(--color6, #404bbf)" d="M31.6094 97.3027c0-0.457-0.0703-0.8672-0.211-1.2304-0.1289-0.375-0.375-0.7149-0.7382-1.0196-0.3633-0.3164-0.8731-0.6269-1.5293-0.9316-0.6563-0.3047-1.5059-0.6211-2.5489-0.9492-1.1601-0.375-2.2617-0.7969-3.3047-1.2657-1.0312-0.4687-1.9453-1.0136-2.7421-1.6347-0.7852-0.6328-1.4063-1.3653-1.8633-2.1973-0.4453-0.832-0.668-1.7988-0.668-2.9004 0-1.0664 0.2344-2.0332 0.7031-2.9004 0.4688-0.8789 1.125-1.6289 1.9688-2.25 0.8437-0.6328 1.8398-1.1191 2.9883-1.4589 1.1601-0.3399 2.4316-0.5098 3.8144-0.5098 1.8867 0 3.5332 0.3398 4.9395 1.0195 1.4062 0.6797 2.4961 1.6113 3.2695 2.7949 0.7852 1.1836 1.1777 2.5371 1.1777 4.0606H31.627c0-0.75-0.1582-1.4063-0.4747-1.9688-0.3046-0.5742-0.7734-1.0254-1.4062-1.3535-0.6211-0.3281-1.4063-0.4922-2.3555-0.4922-0.914 0-1.6758 0.1407-2.2851 0.4219-0.6094 0.2695-1.0664 0.6387-1.3711 1.1074-0.3047 0.4571-0.4571 0.9727-0.4571 1.5469 0 0.4336 0.1055 0.8262 0.3165 1.1777 0.2226 0.3516 0.5507 0.6797 0.9843 0.9844s0.9668 0.5918 1.5996 0.8613c0.6328 0.2696 1.3653 0.5332 2.1973 0.7911 1.3945 0.4218 2.6191 0.8964 3.6738 1.4238 1.0664 0.5273 1.9571 1.1191 2.6719 1.7754 0.7148 0.6562 1.2539 1.4004 1.6172 2.2324s0.5449 1.7754 0.5449 2.8301c0 1.1133-0.2168 2.1094-0.6504 2.9884s-1.0605 1.623-1.8808 2.232c-0.8204 0.61-1.7989 1.073-2.9356 1.389s-2.4082 0.475-3.8144 0.475c-1.2657 0-2.5137-0.164-3.7442-0.493-1.2304-0.339-2.3496-0.849-3.3574-1.529-0.9961-0.68-1.793-1.547-2.3906-2.6015-0.5977-1.0547-0.8965-2.3027-0.8965-3.7441h5.291c0 0.7968 0.1231 1.4707 0.3691 2.0215 0.2461 0.5507 0.5918 0.9961 1.0372 1.3359 0.457 0.3398 0.996 0.5859 1.6171 0.7382 0.6329 0.152 1.3243 0.229 2.0743 0.229 0.914 0 1.664-0.129 2.25-0.3871 0.5976-0.2578 1.0371-0.6153 1.3183-1.0723 0.293-0.457 0.4395-0.9726 0.4395-1.5469zM50.1887 84.9805v3.5859H39.1145v-3.5859zM41.8567 80.2871h5.0625v17.9824c0 0.5508 0.0703 0.9727 0.211 1.2657 0.1523 0.2929 0.375 0.4978 0.6679 0.6148 0.293 0.106 0.6621 0.159 1.1074 0.159 0.3165 0 0.5977-0.012 0.8438-0.036 0.2578-0.035 0.4746-0.07 0.6504-0.105l0.0176 3.727c-0.4336 0.14-0.9024 0.251-1.4063 0.334-0.5039 0.082-1.0605 0.123-1.6699 0.123-1.1133 0-2.0859-0.182-2.918-0.545-0.8203-0.375-1.4531-0.973-1.8984-1.793-0.4453-0.821-0.668-1.899-0.668-3.2347zM65.0416 99.4473V84.9805h5.0625V104h-4.7637zM65.6041 95.5449l1.4941-0.0351c0 1.2656-0.1465 2.4433-0.4395 3.5332-0.2929 1.078-0.7324 2.016-1.3183 2.812-0.5859 0.786-1.3242 1.401-2.2149 1.846-0.8906 0.434-1.9394 0.651-3.1464 0.651-0.9258 0-1.7813-0.129-2.5664-0.387-0.7735-0.27-1.4415-0.686-2.004-1.248-0.5507-0.574-0.9843-1.307-1.3007-2.197-0.3047-0.9028-0.4571-1.9868-0.4571-3.2524V84.9805h5.0625v12.3222c0 0.5625 0.0645 1.0371 0.1934 1.4239 0.1406 0.3867 0.334 0.7031 0.5801 0.9492s0.5332 0.4222 0.8613 0.5272c0.3398 0.106 0.7148 0.158 1.125 0.158 1.043 0 1.8633-0.211 2.4609-0.6325 0.6094-0.4219 1.0371-0.9961 1.2832-1.7226 0.2579-0.7383 0.3868-1.5586 0.3868-2.461zM85.9237 99.8516V77h5.0976v27h-4.5879zM73.9002 94.7188v-0.3692c0-1.4531 0.1641-2.7715 0.4922-3.9551 0.3281-1.1953 0.8086-2.2207 1.4414-3.0761 0.6328-0.8555 1.4121-1.5176 2.3379-1.9864 0.9258-0.4687 1.9805-0.7031 3.1641-0.7031 1.1133 0 2.0859 0.2344 2.9179 0.7031 0.8438 0.4688 1.5586 1.1368 2.1446 2.0039 0.5976 0.8555 1.0781 1.8692 1.4414 3.0411 0.3633 1.1601 0.6269 2.4316 0.791 3.8144V95c-0.1641 1.3242-0.4277 2.5547-0.791 3.6914s-0.8438 2.1326-1.4414 2.9886c-0.586 0.843-1.3008 1.5-2.1446 1.968-0.8437 0.469-1.8281 0.704-2.9531 0.704-1.1836 0-2.2383-0.241-3.164-0.721-0.9141-0.481-1.6875-1.154-2.3204-2.022-0.621-0.867-1.0957-1.8863-1.4238-3.0582s-0.4922-2.4492-0.4922-3.832zM78.9627 94.3496v0.3692c0 0.7851 0.0586 1.5175 0.1758 2.1972 0.1289 0.6797 0.334 1.2832 0.6152 1.8106 0.293 0.5156 0.668 0.9199 1.125 1.2129 0.4688 0.2815 1.0372 0.4215 1.7051 0.4215 0.8672 0 1.5821-0.193 2.1446-0.5798 0.5625-0.3984 0.9902-0.9433 1.2832-1.6347 0.3046-0.6914 0.4804-1.4883 0.5273-2.3906v-2.3028c-0.0352-0.7383-0.1406-1.4004-0.3164-1.9863-0.1641-0.5977-0.4102-1.1074-0.7383-1.5293-0.3164-0.4219-0.7148-0.75-1.1953-0.9844-0.4687-0.2343-1.0254-0.3515-1.6699-0.3515-0.6563 0-1.2188 0.1523-1.6875 0.457-0.4688 0.293-0.8496 0.6973-1.1426 1.2129-0.2812 0.5156-0.4922 1.125-0.6328 1.8281-0.1289 0.6914-0.1934 1.4414-0.1934 2.25zM101.04 84.9805V104h-5.0799V84.9805zM95.6437 80.0234c0-0.7382 0.2578-1.3476 0.7734-1.8281s1.207-0.7207 2.0742-0.7207c0.8555 0 1.5407 0.2402 2.0567 0.7207 0.527 0.4805 0.791 1.0899 0.791 1.8281 0 0.7383-0.264 1.3477-0.791 1.8282-0.516 0.4804-1.2012 0.7207-2.0567 0.7207-0.8672 0-1.5586-0.2403-2.0742-0.7207-0.5156-0.4805-0.7734-1.0899-0.7734-1.8282zM105.135 94.6836v-0.3691c0-1.3946 0.199-2.6778 0.598-3.8497 0.398-1.1836 0.978-2.2089 1.74-3.0761s1.699-1.541 2.813-2.0215c1.113-0.4922 2.39-0.7383 3.832-0.7383 1.441 0 2.724 0.2461 3.849 0.7383 1.125 0.4805 2.069 1.1543 2.83 2.0215 0.774 0.8672 1.36 1.8925 1.758 3.0761 0.399 1.1719 0.598 2.4551 0.598 3.8497v0.3691c0 1.3828-0.199 2.666-0.598 3.8496-0.398 1.1719-0.984 2.1968-1.758 3.0758-0.761 0.868-1.699 1.541-2.812 2.022-1.114 0.48-2.391 0.721-3.832 0.721-1.442 0-2.725-0.241-3.85-0.721-1.113-0.481-2.057-1.154-2.83-2.022-0.762-0.879-1.342-1.9039-1.74-3.0758-0.399-1.1836-0.598-2.4668-0.598-3.8496zM110.198 94.3145v0.3691c0 0.7969 0.07 1.541 0.211 2.2324 0.14 0.6914 0.363 1.3008 0.668 1.8281 0.316 0.5157 0.726 0.92 1.23 1.2129 0.504 0.293 1.119 0.439 1.846 0.439 0.703 0 1.306-0.146 1.81-0.439 0.504-0.2929 0.908-0.6972 1.213-1.2129 0.305-0.5273 0.528-1.1367 0.668-1.8281 0.152-0.6914 0.229-1.4355 0.229-2.2324v-0.3691c0-0.7735-0.077-1.5-0.229-2.1797-0.14-0.6914-0.369-1.3008-0.685-1.8282-0.305-0.539-0.709-0.9609-1.213-1.2656s-1.114-0.457-1.828-0.457c-0.715 0-1.325 0.1523-1.829 0.457-0.492 0.3047-0.896 0.7266-1.212 1.2656-0.305 0.5274-0.528 1.1368-0.668 1.8282-0.141 0.6797-0.211 1.4062-0.211 2.1797z" />
            <path fill="var(--color0, #2e2f42)" d="M28.252 174.877h-6.5215v-4.113h6.5215c1.0078 0 1.8281-0.164 2.4609-0.493 0.6328-0.339 1.0957-0.808 1.3887-1.406 0.2929-0.597 0.4394-1.271 0.4394-2.021 0-0.762-0.1465-1.471-0.4394-2.127-0.293-0.656-0.7559-1.184-1.3887-1.582-0.6328-0.399-1.4531-0.598-2.4609-0.598h-4.6934V184h-5.2734v-25.594h9.9668c2.0039 0 3.7207 0.364 5.1503 1.09 1.4415 0.715 2.543 1.705 3.3047 2.971 0.7618 1.265 1.1426 2.713 1.1426 4.342 0 1.652-0.3808 3.082-1.1426 4.289-0.7617 1.207-1.8632 2.138-3.3047 2.795-1.4296 0.656-3.1464 0.984-5.1503 0.984zM40.8372 174.684v-0.37c0-1.394 0.1992-2.677 0.5976-3.849 0.3985-1.184 0.9786-2.209 1.7403-3.076 0.7617-0.868 1.6992-1.541 2.8125-2.022 1.1133-0.492 2.3906-0.738 3.832-0.738s2.7246 0.246 3.8496 0.738c1.125 0.481 2.0684 1.154 2.8301 2.022 0.7734 0.867 1.3594 1.892 1.7578 3.076 0.3984 1.172 0.5977 2.455 0.5977 3.849v0.37c0 1.382-0.1993 2.666-0.5977 3.849-0.3984 1.172-0.9844 2.197-1.7578 3.076-0.7617 0.868-1.6992 1.541-2.8125 2.022-1.1133 0.48-2.3906 0.721-3.832 0.721s-2.7246-0.241-3.8496-0.721c-1.1133-0.481-2.0567-1.154-2.8301-2.022-0.7617-0.879-1.3418-1.904-1.7403-3.076-0.3984-1.183-0.5976-2.467-0.5976-3.849zM45.8997 174.314v0.37c0 0.796 0.0703 1.541 0.2109 2.232s0.3633 1.301 0.668 1.828c0.3164 0.516 0.7266 0.92 1.2305 1.213s1.1191 0.439 1.8457 0.439c0.7031 0 1.3066-0.146 1.8105-0.439s0.9082-0.697 1.2129-1.213c0.3047-0.527 0.5273-1.137 0.668-1.828 0.1523-0.691 0.2285-1.436 0.2285-2.232v-0.37c0-0.773-0.0762-1.5-0.2285-2.179-0.1407-0.692-0.3692-1.301-0.6856-1.828-0.3047-0.539-0.709-0.961-1.2129-1.266s-1.1132-0.457-1.8281-0.457c-0.7148 0-1.3242 0.152-1.8281 0.457-0.4922 0.305-0.8965 0.727-1.2129 1.266-0.3047 0.527-0.5274 1.136-0.668 1.828-0.1406 0.679-0.2109 1.406-0.2109 2.179zM67.7486 169.129V184h-5.0625v-19.02h4.7637zM73.4791 164.857l-0.0879 4.694c-0.2461-0.035-0.545-0.065-0.8965-0.088-0.3399-0.035-0.6504-0.053-0.9317-0.053-0.7148 0-1.3359 0.094-1.8632 0.281-0.5157 0.176-0.9493 0.44-1.3008 0.791-0.3399 0.352-0.5977 0.78-0.7735 1.284-0.164 0.504-0.2578 1.078-0.2812 1.722l-1.0195-0.316c0-1.231 0.123-2.361 0.3691-3.393 0.2461-1.043 0.6035-1.951 1.0723-2.724 0.4804-0.774 1.0664-1.371 1.7578-1.793s1.4824-0.633 2.373-0.633c0.2813 0 0.5684 0.023 0.8614 0.07 0.2929 0.035 0.5332 0.088 0.7207 0.158zM86.785 164.98v3.586H75.7108v-3.586zM78.453 160.287h5.0625v17.983c0 0.55 0.0703 0.972 0.2109 1.265 0.1523 0.293 0.375 0.498 0.668 0.615 0.2929 0.106 0.6621 0.159 1.1074 0.159 0.3164 0 0.5977-0.012 0.8437-0.036 0.2579-0.035 0.4747-0.07 0.6504-0.105l0.0176 3.727c-0.4336 0.14-0.9023 0.251-1.4062 0.334-0.5039 0.082-1.0606 0.123-1.67 0.123-1.1132 0-2.0859-0.182-2.9179-0.545-0.8203-0.375-1.4532-0.973-1.8985-1.793-0.4453-0.821-0.6679-1.899-0.6679-3.235zM96.839 184h-5.0977v-20.707c0-1.441 0.2813-2.654 0.8438-3.639 0.5742-0.996 1.3769-1.746 2.4082-2.25 1.0429-0.515 2.2793-0.773 3.709-0.773 0.4687 0 0.9199 0.035 1.3537 0.105 0.433 0.059 0.855 0.135 1.265 0.229l-0.052 3.814c-0.223-0.058-0.457-0.099-0.703-0.123-0.247-0.023-0.534-0.035-0.8618-0.035-0.6094 0-1.1308 0.106-1.5644 0.317-0.4219 0.199-0.7442 0.498-0.9668 0.896-0.2227 0.398-0.334 0.885-0.334 1.459zM100.636 164.98v3.586H88.9112v-3.586zM103.202 174.684v-0.37c0-1.394 0.199-2.677 0.597-3.849 0.399-1.184 0.979-2.209 1.74-3.076 0.762-0.868 1.7-1.541 2.813-2.022 1.113-0.492 2.391-0.738 3.832-0.738s2.725 0.246 3.85 0.738c1.125 0.481 2.068 1.154 2.83 2.022 0.773 0.867 1.359 1.892 1.757 3.076 0.399 1.172 0.598 2.455 0.598 3.849v0.37c0 1.382-0.199 2.666-0.598 3.849-0.398 1.172-0.984 2.197-1.757 3.076-0.762 0.868-1.7 1.541-2.813 2.022-1.113 0.48-2.39 0.721-3.832 0.721-1.441 0-2.724-0.241-3.849-0.721-1.114-0.481-2.057-1.154-2.831-2.022-0.761-0.879-1.341-1.904-1.74-3.076-0.398-1.183-0.597-2.467-0.597-3.849zM108.264 174.314v0.37c0 0.796 0.07 1.541 0.211 2.232s0.363 1.301 0.668 1.828c0.316 0.516 0.727 0.92 1.23 1.213 0.504 0.293 1.12 0.439 1.846 0.439 0.703 0 1.307-0.146 1.811-0.439s0.908-0.697 1.213-1.213c0.304-0.527 0.527-1.137 0.668-1.828 0.152-0.691 0.228-1.436 0.228-2.232v-0.37c0-0.773-0.076-1.5-0.228-2.179-0.141-0.692-0.37-1.301-0.686-1.828-0.305-0.539-0.709-0.961-1.213-1.266s-1.113-0.457-1.828-0.457-1.324 0.152-1.828 0.457c-0.492 0.305-0.897 0.727-1.213 1.266-0.305 0.527-0.527 1.136-0.668 1.828-0.141 0.679-0.211 1.406-0.211 2.179zM130.394 157v27h-5.08v-27zM140.642 164.98V184h-5.081v-19.02zM135.245 160.023c0-0.738 0.258-1.347 0.774-1.828 0.515-0.48 1.207-0.72 2.074-0.72 0.855 0 1.541 0.24 2.056 0.72 0.528 0.481 0.791 1.09 0.791 1.828 0 0.739-0.263 1.348-0.791 1.829-0.515 0.48-1.201 0.72-2.056 0.72-0.867 0-1.559-0.24-2.074-0.72-0.516-0.481-0.774-1.09-0.774-1.829zM144.737 174.684v-0.37c0-1.394 0.199-2.677 0.597-3.849 0.399-1.184 0.979-2.209 1.74-3.076 0.762-0.868 1.7-1.541 2.813-2.022 1.113-0.492 2.391-0.738 3.832-0.738s2.725 0.246 3.85 0.738c1.125 0.481 2.068 1.154 2.83 2.022 0.773 0.867 1.359 1.892 1.757 3.076 0.399 1.172 0.598 2.455 0.598 3.849v0.37c0 1.382-0.199 2.666-0.598 3.849-0.398 1.172-0.984 2.197-1.757 3.076-0.762 0.868-1.7 1.541-2.813 2.022-1.113 0.48-2.39 0.721-3.832 0.721-1.441 0-2.724-0.241-3.849-0.721-1.114-0.481-2.057-1.154-2.831-2.022-0.761-0.879-1.341-1.904-1.74-3.076-0.398-1.183-0.597-2.467-0.597-3.849zM149.799 174.314v0.37c0 0.796 0.07 1.541 0.211 2.232s0.363 1.301 0.668 1.828c0.316 0.516 0.727 0.92 1.23 1.213 0.504 0.293 1.12 0.439 1.846 0.439 0.703 0 1.307-0.146 1.811-0.439s0.908-0.697 1.213-1.213c0.304-0.527 0.527-1.137 0.668-1.828 0.152-0.691 0.228-1.436 0.228-2.232v-0.37c0-0.773-0.076-1.5-0.228-2.179-0.141-0.692-0.37-1.301-0.686-1.828-0.305-0.539-0.709-0.961-1.213-1.266s-1.113-0.457-1.828-0.457-1.324 0.152-1.828 0.457c-0.492 0.305-0.897 0.727-1.213 1.266-0.305 0.527-0.527 1.136-0.668 1.828-0.141 0.679-0.211 1.406-0.211 2.179z" />
            <path fill="var(--color0, #2e2f42)" d="M33.1211 255.51h5.2559c-0.1055 1.722-0.5801 3.252-1.4239 4.588-0.832 1.336-1.998 2.379-3.498 3.129-1.4883 0.75-3.2813 1.125-5.3789 1.125-1.6407 0-3.1114-0.282-4.4121-0.844-1.3008-0.574-2.4141-1.395-3.3399-2.461-0.914-1.067-1.6113-2.356-2.0918-3.867-0.4804-1.512-0.7207-3.205-0.7207-5.08v-1.776c0-1.875 0.2461-3.568 0.7383-5.08 0.5039-1.523 1.2188-2.818 2.1445-3.885 0.9375-1.066 2.0567-1.886 3.3575-2.461 1.3007-0.574 2.7539-0.861 4.3593-0.861 2.1328 0 3.9317 0.387 5.3965 1.16 1.4766 0.774 2.6192 1.84 3.4277 3.199 0.8204 1.36 1.3125 2.907 1.4766 4.641h-5.2734c-0.0586-1.031-0.2637-1.904-0.6153-2.619-0.3515-0.727-0.8847-1.272-1.5996-1.635-0.7031-0.375-1.6406-0.562-2.8125-0.562-0.8789 0-1.6465 0.164-2.3027 0.492-0.6563 0.328-1.207 0.826-1.6524 1.494-0.4453 0.668-0.7792 1.512-1.0019 2.531-0.2109 1.008-0.3164 2.192-0.3164 3.551v1.811c0 1.324 0.0996 2.49 0.2988 3.498 0.1992 0.996 0.5039 1.84 0.9141 2.531 0.4219 0.68 0.9609 1.195 1.6172 1.547 0.6679 0.34 1.4707 0.51 2.4082 0.51 1.1015 0 2.0097-0.176 2.7246-0.528 0.7148-0.351 1.2597-0.873 1.6347-1.564 0.3868-0.692 0.6153-1.553 0.6856-2.584zM41.4348 254.684v-0.37c0-1.394 0.1993-2.677 0.5977-3.849 0.3984-1.184 0.9785-2.209 1.7402-3.076 0.7618-0.868 1.6993-1.541 2.8125-2.022 1.1133-0.492 2.3907-0.738 3.8321-0.738s2.7246 0.246 3.8496 0.738c1.125 0.481 2.0683 1.154 2.8301 2.022 0.7734 0.867 1.3593 1.892 1.7578 3.076 0.3984 1.172 0.5976 2.455 0.5976 3.849v0.37c0 1.382-0.1992 2.666-0.5976 3.849-0.3985 1.172-0.9844 2.197-1.7578 3.076-0.7618 0.868-1.6993 1.541-2.8125 2.022-1.1133 0.48-2.3907 0.721-3.8321 0.721s-2.7246-0.241-3.8496-0.721c-1.1133-0.481-2.0566-1.154-2.8301-2.022-0.7617-0.879-1.3418-1.904-1.7402-3.076-0.3984-1.183-0.5977-2.467-0.5977-3.849zM46.4973 254.314v0.37c0 0.796 0.0704 1.541 0.211 2.232s0.3633 1.301 0.6679 1.828c0.3165 0.516 0.7266 0.92 1.2305 1.213s1.1192 0.439 1.8457 0.439c0.7031 0 1.3067-0.146 1.8106-0.439s0.9082-0.697 1.2129-1.213c0.3046-0.527 0.5273-1.137 0.6679-1.828 0.1524-0.691 0.2285-1.436 0.2285-2.232v-0.37c0-0.773-0.0761-1.5-0.2285-2.179-0.1406-0.692-0.3691-1.301-0.6855-1.828-0.3047-0.539-0.709-0.961-1.2129-1.266s-1.1133-0.457-1.8281-0.457c-0.7149 0-1.3243 0.152-1.8282 0.457-0.4921 0.305-0.8964 0.727-1.2129 1.266-0.3046 0.527-0.5273 1.136-0.6679 1.828-0.1406 0.679-0.211 1.406-0.211 2.179zM68.2408 249.041V264h-5.0625v-19.02h4.7461zM67.5025 253.822h-1.3711c0-1.406 0.1816-2.672 0.5449-3.797 0.3633-1.136 0.8731-2.103 1.5293-2.9 0.6563-0.809 1.4356-1.424 2.3379-1.846 0.9141-0.433 1.9336-0.65 3.0586-0.65 0.8906 0 1.7051 0.129 2.4434 0.387 0.7382 0.257 1.3711 0.668 1.8984 1.23 0.5391 0.563 0.9492 1.307 1.2305 2.233 0.2929 0.925 0.4394 2.056 0.4394 3.392V264h-5.0976v-12.146c0-0.844-0.1172-1.5-0.3516-1.969s-0.5801-0.797-1.0371-0.985c-0.4453-0.199-0.9961-0.298-1.6523-0.298-0.6797 0-1.2715 0.134-1.7754 0.404-0.4922 0.269-0.9024 0.644-1.2305 1.125-0.3164 0.469-0.5566 1.019-0.7207 1.652s-0.2461 1.313-0.2461 2.039zM93.4998 244.98v3.586H82.4256v-3.586zM85.1678 240.287h5.0625v17.983c0 0.55 0.0703 0.972 0.211 1.265 0.1523 0.293 0.375 0.498 0.6679 0.615 0.293 0.106 0.6621 0.159 1.1074 0.159 0.3165 0 0.5977-0.012 0.8438-0.036 0.2578-0.035 0.4746-0.07 0.6504-0.105l0.0176 3.727c-0.4336 0.14-0.9024 0.251-1.4063 0.334-0.5039 0.082-1.0605 0.123-1.6699 0.123-1.1133 0-2.0859-0.182-2.918-0.545-0.8203-0.375-1.4531-0.973-1.8984-1.793-0.4453-0.821-0.668-1.899-0.668-3.235zM107.368 259.711v-8.473c0-0.609-0.099-1.131-0.299-1.564-0.199-0.445-0.509-0.791-0.931-1.037-0.41-0.246-0.944-0.369-1.6-0.369-0.562 0-1.049 0.099-1.459 0.298-0.41 0.188-0.726 0.463-0.949 0.827-0.223 0.351-0.334 0.767-0.334 1.248h-5.0625c0-0.809 0.1875-1.577 0.5625-2.303 0.375-0.727 0.9199-1.365 1.6348-1.916 0.7148-0.563 1.5642-1.002 2.5492-1.318 0.996-0.317 2.109-0.475 3.339-0.475 1.477 0 2.79 0.246 3.938 0.738s2.051 1.231 2.707 2.215c0.668 0.984 1.002 2.215 1.002 3.691v8.139c0 1.043 0.064 1.899 0.193 2.567 0.129 0.656 0.317 1.23 0.563 1.722V264h-5.115c-0.247-0.516-0.434-1.16-0.563-1.934-0.117-0.785-0.176-1.57-0.176-2.355zM108.036 252.416l0.035 2.865h-2.83c-0.668 0-1.248 0.076-1.74 0.229-0.492 0.152-0.896 0.369-1.213 0.65-0.316 0.27-0.551 0.586-0.703 0.949-0.141 0.364-0.211 0.762-0.211 1.196 0 0.433 0.1 0.826 0.299 1.177 0.199 0.34 0.486 0.61 0.861 0.809 0.375 0.188 0.815 0.281 1.319 0.281 0.761 0 1.423-0.152 1.986-0.457 0.562-0.304 0.996-0.679 1.301-1.125 0.316-0.445 0.48-0.867 0.492-1.265l1.336 2.144c-0.188 0.481-0.445 0.979-0.774 1.494-0.316 0.516-0.72 1.002-1.212 1.459-0.493 0.446-1.084 0.815-1.776 1.108-0.691 0.281-1.512 0.422-2.461 0.422-1.207 0-2.303-0.241-3.2869-0.721-0.9726-0.492-1.7461-1.166-2.3203-2.022-0.5625-0.867-0.8437-1.851-0.8437-2.953 0-0.996 0.1875-1.881 0.5625-2.654s0.9257-1.424 1.6523-1.951c0.7383-0.539 1.6581-0.944 2.7601-1.213 1.101-0.281 2.379-0.422 3.832-0.422zM124.946 260.396c0.621 0 1.172-0.117 1.652-0.351 0.481-0.246 0.856-0.586 1.125-1.02 0.281-0.445 0.428-0.966 0.439-1.564h4.764c-0.012 1.336-0.369 2.525-1.072 3.568-0.703 1.032-1.647 1.846-2.83 2.444-1.184 0.586-2.508 0.879-3.973 0.879-1.476 0-2.765-0.247-3.867-0.739-1.09-0.492-1.998-1.172-2.725-2.039-0.726-0.879-1.271-1.898-1.634-3.058-0.364-1.172-0.545-2.426-0.545-3.762v-0.51c0-1.348 0.181-2.601 0.545-3.762 0.363-1.171 0.908-2.191 1.634-3.058 0.727-0.879 1.635-1.565 2.725-2.057s2.367-0.738 3.832-0.738c1.559 0 2.924 0.299 4.096 0.896 1.183 0.598 2.109 1.454 2.777 2.567 0.68 1.101 1.025 2.408 1.037 3.92h-4.764c-0.011-0.633-0.146-1.207-0.404-1.723-0.246-0.516-0.609-0.926-1.09-1.23-0.468-0.317-1.048-0.475-1.74-0.475-0.738 0-1.342 0.158-1.81 0.475-0.469 0.304-0.832 0.726-1.09 1.265-0.258 0.528-0.44 1.131-0.545 1.811-0.094 0.668-0.141 1.371-0.141 2.109v0.51c0 0.738 0.047 1.447 0.141 2.127s0.269 1.283 0.527 1.81c0.27 0.528 0.639 0.944 1.108 1.248 0.468 0.305 1.078 0.457 1.828 0.457zM145.898 244.98v3.586h-11.074v-3.586zM137.566 240.287h5.063v17.983c0 0.55 0.07 0.972 0.211 1.265 0.152 0.293 0.375 0.498 0.667 0.615 0.293 0.106 0.663 0.159 1.108 0.159 0.316 0 0.598-0.012 0.844-0.036 0.257-0.035 0.474-0.07 0.65-0.105l0.018 3.727c-0.434 0.14-0.903 0.251-1.407 0.334-0.504 0.082-1.06 0.123-1.67 0.123-1.113 0-2.085-0.182-2.918-0.545-0.82-0.375-1.453-0.973-1.898-1.793-0.445-0.821-0.668-1.899-0.668-3.235zM159.784 258.744c0-0.363-0.105-0.691-0.316-0.984s-0.604-0.563-1.178-0.809c-0.563-0.258-1.377-0.492-2.443-0.703-0.961-0.211-1.858-0.475-2.69-0.791-0.82-0.328-1.535-0.721-2.144-1.178-0.598-0.457-1.067-0.996-1.407-1.617-0.339-0.633-0.509-1.353-0.509-2.162 0-0.797 0.17-1.547 0.509-2.25 0.352-0.703 0.85-1.324 1.495-1.863 0.656-0.551 1.453-0.979 2.39-1.283 0.949-0.317 2.016-0.475 3.199-0.475 1.653 0 3.071 0.264 4.254 0.791 1.196 0.527 2.11 1.254 2.742 2.18 0.645 0.914 0.967 1.957 0.967 3.129h-5.062c0-0.493-0.106-0.932-0.317-1.319-0.199-0.398-0.515-0.709-0.949-0.931-0.422-0.235-0.973-0.352-1.652-0.352-0.563 0-1.049 0.1-1.459 0.299-0.41 0.187-0.727 0.445-0.949 0.773-0.211 0.317-0.317 0.668-0.317 1.055 0 0.293 0.059 0.557 0.176 0.791 0.129 0.223 0.334 0.428 0.615 0.615 0.281 0.188 0.645 0.363 1.09 0.528 0.457 0.152 1.02 0.292 1.688 0.421 1.371 0.282 2.595 0.651 3.673 1.108 1.079 0.445 1.934 1.054 2.567 1.828 0.633 0.762 0.949 1.764 0.949 3.006 0 0.844-0.187 1.617-0.562 2.32s-0.915 1.318-1.618 1.846c-0.703 0.515-1.547 0.92-2.531 1.213-0.973 0.281-2.068 0.422-3.287 0.422-1.77 0-3.27-0.317-4.5-0.95-1.219-0.632-2.145-1.435-2.777-2.408-0.621-0.984-0.932-1.992-0.932-3.023h4.799c0.023 0.691 0.199 1.248 0.527 1.67 0.34 0.421 0.768 0.726 1.283 0.914 0.528 0.187 1.096 0.281 1.705 0.281 0.657 0 1.202-0.088 1.635-0.264 0.434-0.187 0.762-0.433 0.985-0.738 0.234-0.316 0.351-0.68 0.351-1.09z" />
            <path d="M26.3906 451.207v2.119h-9.7461v-2.119zM22.6602 447.223v10.351h-2.2754v-10.351zM35.0133 444.732V459h-2.3535v-11.475l-3.4864 1.182v-1.943l5.5567-2.032zM46.7805 444.732V459H44.427v-11.475l-3.4864 1.182v-1.943l5.5567-2.032zM57.6879 453.385v-0.166c0-1.393 0.1497-2.657 0.4492-3.789 0.306-1.14 0.7031-2.136 1.1914-2.989 0.4883-0.859 1.0091-1.569 1.5625-2.129 0.5599-0.566 1.097-0.973 1.6113-1.22l0.4688 1.347c-0.3776 0.28-0.7552 0.668-1.1328 1.163-0.3711 0.494-0.7129 1.103-1.0254 1.826-0.306 0.716-0.5534 1.556-0.7422 2.519-0.1823 0.957-0.2734 2.041-0.2734 3.252v0.205c0 1.211 0.0911 2.298 0.2734 3.262 0.1888 0.957 0.4362 1.797 0.7422 2.52 0.3125 0.722 0.6543 1.334 1.0254 1.835 0.3776 0.508 0.7552 0.912 1.1328 1.211l-0.4688 1.289c-0.5143-0.253-1.0514-0.664-1.6113-1.23-0.5534-0.56-1.0742-1.27-1.5625-2.129-0.4883-0.853-0.8854-1.846-1.1914-2.978-0.2995-1.14-0.4492-2.406-0.4492-3.799zM74.1035 450.699v2.324c0 1.114-0.1107 2.064-0.332 2.852-0.2149 0.781-0.5274 1.416-0.9375 1.904-0.4102 0.489-0.9017 0.847-1.4746 1.075-0.5664 0.227-1.2012 0.341-1.9043 0.341-0.5599 0-1.0808-0.071-1.5625-0.215-0.4753-0.143-0.905-0.367-1.2891-0.673s-0.7129-0.7-0.9863-1.182c-0.2669-0.488-0.4753-1.071-0.625-1.748-0.1432-0.677-0.2149-1.462-0.2149-2.354v-2.324c0-1.12 0.1107-2.064 0.3321-2.832 0.2213-0.775 0.5371-1.403 0.9472-1.885 0.4102-0.488 0.8985-0.843 1.4649-1.064 0.5729-0.221 1.2109-0.332 1.914-0.332 0.5665 0 1.0873 0.072 1.5625 0.215 0.4818 0.137 0.9115 0.355 1.2891 0.654 0.3841 0.3 0.7096 0.69 0.9766 1.172 0.2734 0.475 0.4817 1.051 0.625 1.728 0.1432 0.671 0.2148 1.452 0.2148 2.344zM71.75 453.355v-3.007c0-0.567-0.0326-1.065-0.0977-1.494-0.0651-0.437-0.1627-0.805-0.2929-1.104-0.1237-0.306-0.28-0.553-0.4688-0.742-0.1888-0.196-0.4036-0.335-0.6445-0.42-0.2409-0.091-0.5111-0.137-0.8106-0.137-0.3645 0-0.6901 0.072-0.9765 0.215-0.2865 0.137-0.5274 0.358-0.7227 0.664s-0.345 0.71-0.4492 1.211c-0.0976 0.495-0.1465 1.097-0.1465 1.807v3.007c0 0.573 0.0326 1.078 0.0977 1.514s0.1627 0.811 0.2929 1.123c0.1303 0.306 0.2865 0.56 0.4688 0.762 0.1888 0.195 0.4036 0.338 0.6445 0.43 0.2474 0.091 0.5176 0.136 0.8106 0.136 0.3711 0 0.6998-0.071 0.9863-0.215 0.2865-0.143 0.5274-0.371 0.7227-0.683 0.1953-0.319 0.3418-0.733 0.4394-1.24 0.0977-0.508 0.1465-1.117 0.1465-1.827zM85.8707 450.699v2.324c0 1.114-0.1107 2.064-0.332 2.852-0.2149 0.781-0.5274 1.416-0.9375 1.904-0.4102 0.489-0.9017 0.847-1.4746 1.075-0.5664 0.227-1.2012 0.341-1.9043 0.341-0.5599 0-1.0808-0.071-1.5625-0.215-0.4753-0.143-0.905-0.367-1.2891-0.673s-0.7129-0.7-0.9863-1.182c-0.267-0.488-0.4753-1.071-0.625-1.748-0.1433-0.677-0.2149-1.462-0.2149-2.354v-2.324c0-1.12 0.1107-2.064 0.3321-2.832 0.2213-0.775 0.5371-1.403 0.9472-1.885 0.4102-0.488 0.8985-0.843 1.4649-1.064 0.5729-0.221 1.2109-0.332 1.914-0.332 0.5664 0 1.0873 0.072 1.5625 0.215 0.4818 0.137 0.9115 0.355 1.2891 0.654 0.3841 0.3 0.7096 0.69 0.9766 1.172 0.2734 0.475 0.4817 1.051 0.625 1.728 0.1432 0.671 0.2148 1.452 0.2148 2.344zM83.5172 453.355v-3.007c0-0.567-0.0326-1.065-0.0977-1.494-0.0651-0.437-0.1627-0.805-0.2929-1.104-0.1237-0.306-0.28-0.553-0.4688-0.742-0.1888-0.196-0.4036-0.335-0.6445-0.42-0.2409-0.091-0.5111-0.137-0.8106-0.137-0.3645 0-0.6901 0.072-0.9765 0.215-0.2865 0.137-0.5274 0.358-0.7227 0.664s-0.345 0.71-0.4492 1.211c-0.0977 0.495-0.1465 1.097-0.1465 1.807v3.007c0 0.573 0.0326 1.078 0.0977 1.514s0.1627 0.811 0.2929 1.123c0.1302 0.306 0.2865 0.56 0.4688 0.762 0.1888 0.195 0.4036 0.338 0.6445 0.43 0.2474 0.091 0.5176 0.136 0.8106 0.136 0.3711 0 0.6998-0.071 0.9863-0.215 0.2865-0.143 0.5273-0.371 0.7227-0.683 0.1953-0.319 0.3417-0.733 0.4394-1.24 0.0977-0.508 0.1465-1.117 0.1465-1.827zM97.6379 450.699v2.324c0 1.114-0.1107 2.064-0.332 2.852-0.2149 0.781-0.5274 1.416-0.9375 1.904-0.4102 0.489-0.9017 0.847-1.4746 1.075-0.5665 0.227-1.2012 0.341-1.9043 0.341-0.5599 0-1.0808-0.071-1.5625-0.215-0.4753-0.143-0.905-0.367-1.2891-0.673s-0.7129-0.7-0.9863-1.182c-0.267-0.488-0.4753-1.071-0.625-1.748-0.1433-0.677-0.2149-1.462-0.2149-2.354v-2.324c0-1.12 0.1107-2.064 0.3321-2.832 0.2213-0.775 0.5371-1.403 0.9472-1.885 0.4102-0.488 0.8985-0.843 1.4649-1.064 0.5729-0.221 1.2109-0.332 1.914-0.332 0.5664 0 1.0873 0.072 1.5625 0.215 0.4818 0.137 0.9115 0.355 1.2891 0.654 0.3841 0.3 0.7096 0.69 0.9765 1.172 0.2735 0.475 0.4818 1.051 0.625 1.728 0.1433 0.671 0.2149 1.452 0.2149 2.344zM95.2844 453.355v-3.007c0-0.567-0.0326-1.065-0.0977-1.494-0.0651-0.437-0.1627-0.805-0.2929-1.104-0.1237-0.306-0.28-0.553-0.4688-0.742-0.1888-0.196-0.4036-0.335-0.6445-0.42-0.2409-0.091-0.5111-0.137-0.8106-0.137-0.3646 0-0.6901 0.072-0.9765 0.215-0.2865 0.137-0.5274 0.358-0.7227 0.664s-0.345 0.71-0.4492 1.211c-0.0977 0.495-0.1465 1.097-0.1465 1.807v3.007c0 0.573 0.0326 1.078 0.0977 1.514s0.1627 0.811 0.2929 1.123c0.1302 0.306 0.2865 0.56 0.4688 0.762 0.1888 0.195 0.4036 0.338 0.6445 0.43 0.2474 0.091 0.5176 0.136 0.8106 0.136 0.371 0 0.6998-0.071 0.9863-0.215 0.2864-0.143 0.5273-0.371 0.7226-0.683 0.1954-0.319 0.3418-0.733 0.4395-1.24 0.0976-0.508 0.1465-1.117 0.1465-1.827zM104.815 453.219v0.166c0 1.373-0.156 2.627-0.469 3.76-0.306 1.132-0.706 2.128-1.201 2.988-0.488 0.859-1.019 1.575-1.591 2.148-0.567 0.573-1.111 0.987-1.6313 1.24l-0.4786-1.289c0.3776-0.286 0.7519-0.68 1.1229-1.181 0.378-0.495 0.72-1.11 1.026-1.846 0.312-0.729 0.559-1.575 0.742-2.539 0.189-0.964 0.283-2.051 0.283-3.262v-0.205c0-1.211-0.098-2.298-0.293-3.261-0.189-0.971-0.443-1.817-0.762-2.54-0.319-0.729-0.664-1.344-1.035-1.845-0.371-0.502-0.7323-0.892-1.0839-1.172l0.4786-1.289c0.5203 0.247 1.0643 0.657 1.6313 1.23 0.572 0.573 1.103 1.293 1.591 2.158 0.495 0.86 0.895 1.856 1.201 2.989 0.313 1.133 0.469 2.383 0.469 3.75zM119.336 444.732V459h-2.354v-11.475l-3.486 1.182v-1.943l5.557-2.032zM131.103 444.732V459h-2.353v-11.475l-3.487 1.182v-1.943l5.557-2.032zM142.87 444.732V459h-2.353v-11.475l-3.487 1.182v-1.943l5.557-2.032zM153.085 451.988v1.875h-5.166v-1.875zM161.834 444.732V459h-2.353v-11.475l-3.486 1.182v-1.943l5.556-2.032zM173.602 444.732V459h-2.354v-11.475l-3.486 1.182v-1.943l5.556-2.032zM183.816 451.988v1.875h-5.166v-1.875zM192.566 444.732V459h-2.354v-11.475l-3.486 1.182v-1.943l5.556-2.032zM204.333 444.732V459h-2.354v-11.475l-3.486 1.182v-1.943l5.557-2.032z" />
            <path fill="var(--color5, #434455)" d="M19.7305 496.434V507h-2.3633v-10.566zM17.2109 493.66c0-0.358 0.1172-0.654 0.3516-0.889 0.2409-0.24 0.5729-0.361 0.9961-0.361 0.4167 0 0.7454 0.121 0.9863 0.361 0.2409 0.235 0.3613 0.531 0.3613 0.889 0 0.352-0.1204 0.645-0.3613 0.879s-0.5696 0.352-0.9863 0.352c-0.4232 0-0.7552-0.118-0.9961-0.352-0.2344-0.234-0.3516-0.527-0.3516-0.879zM25.0426 498.689V507h-2.3535v-10.566h2.2168zM24.6227 501.326l-0.7618-0.01c65e-4-0.748 0.1107-1.435 0.3125-2.06 0.2084-0.625 0.4948-1.162 0.8594-1.611 0.3711-0.45 0.8138-0.795 1.3281-1.036 0.5144-0.247 1.0873-0.371 1.7188-0.371 0.5078 0 0.9668 0.072 1.3769 0.215 0.4167 0.137 0.7715 0.361 1.0645 0.674 0.2995 0.312 0.5273 0.719 0.6836 1.221 0.1562 0.494 0.2344 1.103 0.2344 1.826V507h-2.3633v-6.836c0-0.508-0.0749-0.908-0.2246-1.201-0.1433-0.3-0.3548-0.511-0.6348-0.635-0.2734-0.13-0.6152-0.195-1.0254-0.195-0.4036 0-0.765 0.084-1.084 0.254-0.319 0.169-0.5892 0.4-0.8105 0.693-0.2149 0.293-0.3809 0.632-0.4981 1.016-0.1171 0.384-0.1757 0.794-0.1757 1.23zM37.425 507h-2.3535v-11.582c0-0.788 0.1465-1.449 0.4394-1.982 0.2995-0.541 0.7259-0.948 1.2793-1.221 0.5534-0.28 1.2077-0.42 1.9629-0.42 0.2344 0 0.4655 0.016 0.6934 0.049 0.2278 0.026 0.4492 0.068 0.664 0.127l-0.0585 1.816c-0.1303-0.032-0.2735-0.055-0.4297-0.068-0.1498-0.013-0.3125-0.02-0.4883-0.02-0.3581 0-0.6673 0.069-0.9278 0.205-0.2539 0.131-0.4492 0.323-0.5859 0.576-0.1302 0.254-0.1953 0.567-0.1953 0.938zM39.6027 496.434v1.718h-6.1523v-1.718zM41.2625 501.834v-0.225c0-0.761 0.1107-1.468 0.332-2.119 0.2214-0.657 0.5404-1.227 0.9571-1.709 0.4231-0.488 0.9375-0.866 1.5429-1.133 0.612-0.273 1.3021-0.41 2.0703-0.41 0.7748 0 1.4649 0.137 2.0704 0.41 0.6119 0.267 1.1295 0.645 1.5527 1.133 0.4232 0.482 0.7454 1.052 0.9668 1.709 0.2213 0.651 0.332 1.358 0.332 2.119v0.225c0 0.762-0.1107 1.468-0.332 2.119-0.2214 0.651-0.5436 1.221-0.9668 1.709-0.4232 0.482-0.9375 0.859-1.543 1.133-0.6054 0.267-1.2923 0.4-2.0605 0.4-0.7748 0-1.4681-0.133-2.0801-0.4-0.6055-0.274-1.1198-0.651-1.543-1.133-0.4231-0.488-0.7454-1.058-0.9668-1.709-0.2213-0.651-0.332-1.357-0.332-2.119zM43.616 501.609v0.225c0 0.475 0.0488 0.924 0.1465 1.348 0.0977 0.423 0.2507 0.794 0.459 1.113s0.4752 0.57 0.8008 0.752c0.3255 0.182 0.7129 0.273 1.1621 0.273 0.4362 0 0.8138-0.091 1.1328-0.273 0.3255-0.182 0.5924-0.433 0.8008-0.752 0.2083-0.319 0.3613-0.69 0.459-1.113 0.1041-0.424 0.1562-0.873 0.1562-1.348v-0.225c0-0.468-0.0521-0.911-0.1562-1.328-0.0977-0.423-0.254-0.797-0.4688-1.123-0.2083-0.325-0.4753-0.579-0.8008-0.762-0.319-0.188-0.6998-0.283-1.1426-0.283-0.4427 0-0.8268 0.095-1.1523 0.283-0.319 0.183-0.5827 0.437-0.791 0.762-0.2083 0.326-0.3613 0.7-0.459 1.123-0.0977 0.417-0.1465 0.86-0.1465 1.328zM69.2699 501.922c-0.026 0.631-0.1204 1.26-0.2832 1.885-0.1627 0.625-0.4101 1.194-0.7422 1.709-0.3255 0.514-0.7454 0.924-1.2597 1.23-0.5144 0.306-1.1328 0.459-1.8555 0.459-0.4362 0-0.8236-0.075-1.1621-0.225-0.3386-0.156-0.6218-0.377-0.8496-0.664-0.2214-0.286-0.3809-0.631-0.4785-1.035-0.0977-0.41-0.1237-0.866-0.0782-1.367l0.4981-5.537h1.709l-0.4883 5.537c-0.0391 0.397-0.0326 0.723 0.0195 0.977 0.0586 0.254 0.1465 0.449 0.2637 0.586 0.1172 0.136 0.2506 0.231 0.4004 0.283 0.1497 0.052 0.2995 0.078 0.4492 0.078 0.3516 0 0.6673-0.098 0.9473-0.293 0.2799-0.202 0.5175-0.479 0.7129-0.83 0.2018-0.358 0.358-0.772 0.4687-1.24 0.1172-0.469 0.1856-0.977 0.2051-1.524 0.0456-0.911 32e-4-1.751-0.127-2.519-0.1302-0.775-0.3515-1.465-0.664-2.071-0.306-0.605-0.7064-1.116-1.2012-1.533-0.4883-0.423-1.0742-0.745-1.7578-0.967-0.6836-0.221-1.4649-0.332-2.3438-0.332-0.8073 0-1.5527 0.124-2.2363 0.371-0.6836 0.248-1.2956 0.606-1.8359 1.075-0.5404 0.462-1.0059 1.018-1.3965 1.67-0.3841 0.644-0.6869 1.37-0.9082 2.177-0.2149 0.801-0.3418 1.66-0.3809 2.578-0.0456 0.964 33e-4 1.843 0.1465 2.637 0.1497 0.794 0.3906 1.498 0.7227 2.109 0.332 0.612 0.7487 1.127 1.25 1.543 0.5078 0.424 1.0937 0.743 1.7578 0.957 0.6705 0.215 1.4127 0.323 2.2265 0.323 0.573 0 1.1524-0.065 1.7383-0.196 0.5925-0.13 1.0905-0.302 1.4942-0.517l0.3711 1.299c-0.4558 0.293-1.0254 0.511-1.709 0.654s-1.3282 0.215-1.9336 0.215c-1.0091 0-1.9336-0.13-2.7735-0.391-0.8333-0.26-1.5722-0.644-2.2168-1.152-0.638-0.501-1.1686-1.117-1.5918-1.846-0.4231-0.729-0.7356-1.566-0.9375-2.51-0.2018-0.944-0.2799-1.985-0.2343-3.125 0.0455-1.067 0.2083-2.07 0.4882-3.007 0.28-0.944 0.6641-1.801 1.1524-2.569 0.4948-0.768 1.0807-1.429 1.7578-1.982 0.6836-0.56 1.4518-0.99 2.3047-1.289 0.8529-0.3 1.7806-0.449 2.7832-0.449 1.0156 0 1.9336 0.133 2.7539 0.4s1.5397 0.654 2.1582 1.162c0.625 0.508 1.1426 1.123 1.5527 1.846 0.4102 0.722 0.7097 1.539 0.8985 2.451 0.1888 0.905 0.2604 1.891 0.2148 2.959zM59.3383 502.85c-0.0456 0.442-0.0488 0.836-98e-4 1.181 0.0456 0.345 0.127 0.635 0.2442 0.869 0.1237 0.235 0.2832 0.414 0.4785 0.538 0.1953 0.123 0.4231 0.185 0.6836 0.185 0.1627 0 0.3353-0.039 0.5175-0.117 0.1888-0.085 0.3744-0.218 0.5567-0.401 0.1823-0.182 0.3548-0.423 0.5176-0.722 0.1627-0.306 0.2994-0.684 0.4101-1.133l0.7422 0.85c-0.1497 0.507-0.3385 0.957-0.5664 1.347-0.2279 0.384-0.485 0.707-0.7715 0.967-0.2864 0.254-0.5957 0.449-0.9277 0.586-0.3321 0.13-0.6771 0.195-1.0352 0.195-0.4752 0-0.8984-0.104-1.2695-0.312-0.3646-0.209-0.6641-0.501-0.8984-0.879-0.2344-0.384-0.4004-0.84-0.4981-1.367-0.0976-0.534-0.1172-1.13-0.0586-1.787 0.0651-0.671 0.1888-1.293 0.3711-1.866 0.1888-0.573 0.4199-1.084 0.6934-1.533 0.2799-0.449 0.5957-0.83 0.9472-1.142 0.3516-0.319 0.7292-0.56 1.1328-0.723 0.4102-0.169 0.8301-0.254 1.2598-0.254 0.7357 0 1.3119 0.104 1.7285 0.313 0.4167 0.208 0.8106 0.452 1.1817 0.732l-0.918 1.172c-0.1888-0.176-0.4362-0.342-0.7422-0.498-0.2995-0.156-0.6575-0.235-1.0742-0.235-0.3711 0-0.7096 0.085-1.0156 0.254-0.2995 0.17-0.5632 0.427-0.791 0.772-0.2279 0.338-0.42 0.758-0.5762 1.26-0.1498 0.501-0.2539 1.084-0.3125 1.748zM78.2539 504.812V492h2.3633v15h-2.1387zM71.3789 501.834v-0.205c0-0.801 0.0944-1.53 0.2832-2.188 0.1888-0.664 0.4622-1.233 0.8203-1.709 0.3581-0.481 0.7943-0.849 1.3086-1.103 0.5143-0.261 1.0938-0.391 1.7383-0.391 0.638 0 1.1979 0.124 1.6797 0.371 0.4818 0.248 0.8919 0.603 1.2305 1.065 0.3385 0.456 0.6087 1.002 0.8105 1.64 0.2018 0.632 0.3451 1.335 0.4297 2.11v0.654c-0.0846 0.755-0.2279 1.445-0.4297 2.07s-0.472 1.166-0.8105 1.622c-0.3386 0.455-0.752 0.807-1.2403 1.054-0.4818 0.248-1.0449 0.371-1.6894 0.371-0.6381 0-1.2142-0.133-1.7286-0.4-0.5078-0.267-0.9407-0.641-1.2988-1.123s-0.6315-1.048-0.8203-1.699c-0.1888-0.658-0.2832-1.371-0.2832-2.139zM73.7324 501.629v0.205c0 0.482 0.0423 0.931 0.127 1.348 0.0911 0.416 0.2311 0.784 0.4199 1.103 0.1888 0.313 0.4329 0.56 0.7324 0.742 0.306 0.176 0.6706 0.264 1.0938 0.264 0.5338 0 0.9733-0.117 1.3183-0.352 0.3451-0.234 0.6153-0.55 0.8106-0.947 0.2018-0.403 0.3385-0.853 0.4101-1.347v-1.768c-0.039-0.384-0.1204-0.742-0.2441-1.074-0.1172-0.332-0.2767-0.622-0.4785-0.869-0.2018-0.254-0.4525-0.45-0.752-0.586-0.2929-0.144-0.6413-0.215-1.0449-0.215-0.4297 0-0.7943 0.091-1.0938 0.273-0.2994 0.183-0.5468 0.433-0.7421 0.752-0.1888 0.319-0.3288 0.69-0.42 1.113-0.0911 0.424-0.1367 0.876-0.1367 1.358zM88.1363 507.195c-0.7812 0-1.4876-0.127-2.1191-0.381-0.625-0.26-1.1589-0.621-1.6016-1.084-0.4362-0.462-0.7715-1.005-1.0058-1.63-0.2344-0.625-0.3516-1.299-0.3516-2.022v-0.39c0-0.827 0.1204-1.576 0.3613-2.247 0.2409-0.67 0.5762-1.243 1.0059-1.718 0.4297-0.482 0.9375-0.85 1.5234-1.104 0.586-0.254 1.2207-0.381 1.9043-0.381 0.7552 0 1.416 0.127 1.9824 0.381 0.5665 0.254 1.0352 0.612 1.4063 1.074 0.3776 0.456 0.6576 1 0.8398 1.631 0.1888 0.632 0.2832 1.328 0.2832 2.09v1.006h-8.164v-1.69h5.8398v-0.185c-0.013-0.423-0.0976-0.82-0.2539-1.191-0.1497-0.372-0.3808-0.671-0.6933-0.899s-0.7292-0.342-1.25-0.342c-0.3907 0-0.739 0.085-1.045 0.254-0.2994 0.163-0.5501 0.401-0.7519 0.713-0.2018 0.313-0.3581 0.69-0.4688 1.133-0.1041 0.436-0.1562 0.928-0.1562 1.475v0.39c0 0.462 0.0618 0.892 0.1855 1.289 0.1302 0.391 0.319 0.733 0.5664 1.026s0.5469 0.524 0.8985 0.693c0.3515 0.163 0.7519 0.244 1.2011 0.244 0.5665 0 1.071-0.114 1.5137-0.342s0.8268-0.55 1.1524-0.967l1.2402 1.202c-0.2279 0.332-0.5241 0.651-0.8887 0.957-0.3646 0.299-0.8105 0.543-1.3379 0.732-0.5208 0.189-1.1263 0.283-1.8164 0.283zM97.9016 505.135l2.5874-8.701h2.442L99.259 507h-1.5235zM95.9191 496.434l2.6368 8.74 0.1269 1.826h-1.5234l-3.6914-10.566zM110.714 504.139c0-0.235-0.059-0.446-0.176-0.635-0.117-0.195-0.342-0.371-0.674-0.527-0.325-0.157-0.807-0.3-1.445-0.43-0.56-0.124-1.074-0.27-1.543-0.44-0.462-0.175-0.86-0.387-1.192-0.634-0.332-0.248-0.589-0.541-0.771-0.879-0.182-0.339-0.274-0.729-0.274-1.172 0-0.43 0.095-0.837 0.284-1.221 0.188-0.384 0.459-0.722 0.81-1.015 0.352-0.293 0.778-0.525 1.279-0.694 0.508-0.169 1.075-0.254 1.7-0.254 0.885 0 1.644 0.15 2.275 0.45 0.638 0.292 1.126 0.693 1.465 1.201 0.338 0.501 0.508 1.067 0.508 1.699h-2.354c0-0.28-0.071-0.54-0.215-0.781-0.136-0.248-0.345-0.446-0.625-0.596-0.28-0.156-0.631-0.234-1.054-0.234-0.404 0-0.739 0.065-1.006 0.195-0.261 0.124-0.456 0.286-0.586 0.488-0.124 0.202-0.186 0.423-0.186 0.664 0 0.176 0.033 0.336 0.098 0.479 0.072 0.136 0.189 0.263 0.352 0.381 0.162 0.11 0.384 0.214 0.664 0.312 0.286 0.098 0.644 0.192 1.074 0.283 0.807 0.17 1.501 0.388 2.08 0.655 0.586 0.26 1.035 0.599 1.348 1.015 0.312 0.41 0.468 0.931 0.468 1.563 0 0.468-0.101 0.898-0.302 1.289-0.196 0.384-0.482 0.719-0.86 1.006-0.377 0.28-0.83 0.498-1.357 0.654-0.521 0.156-1.107 0.234-1.758 0.234-0.957 0-1.768-0.169-2.432-0.507-0.664-0.346-1.168-0.785-1.513-1.319-0.339-0.54-0.508-1.1-0.508-1.68h2.275c0.026 0.437 0.147 0.785 0.362 1.045 0.221 0.254 0.494 0.44 0.82 0.557 0.332 0.111 0.674 0.166 1.025 0.166 0.423 0 0.778-0.055 1.065-0.166 0.286-0.117 0.504-0.273 0.654-0.469 0.15-0.202 0.225-0.429 0.225-0.683zM120.323 496.434v1.718h-5.957v-1.718zM116.084 493.846h2.354v10.234c0 0.326 0.045 0.576 0.137 0.752 0.097 0.169 0.231 0.283 0.4 0.342 0.169 0.058 0.368 0.088 0.596 0.088 0.162 0 0.319-0.01 0.468-0.03 0.15-0.019 0.271-0.039 0.362-0.058l0.01 1.797c-0.196 0.058-0.424 0.11-0.684 0.156-0.254 0.046-0.547 0.068-0.879 0.068-0.54 0-1.019-0.094-1.436-0.283-0.416-0.195-0.742-0.511-0.976-0.947s-0.352-1.016-0.352-1.738zM128.896 504.51v-8.076h2.364V507h-2.227zM129.229 502.312l0.791-0.019c0 0.71-0.079 1.364-0.235 1.963-0.156 0.592-0.397 1.11-0.723 1.553-0.325 0.436-0.742 0.778-1.25 1.025-0.507 0.241-1.116 0.361-1.826 0.361-0.514 0-0.986-0.075-1.416-0.224-0.429-0.15-0.8-0.381-1.113-0.694-0.306-0.312-0.544-0.719-0.713-1.22-0.169-0.502-0.254-1.101-0.254-1.797v-6.826h2.354v6.845c0 0.384 0.045 0.707 0.136 0.967 0.092 0.254 0.215 0.459 0.372 0.615 0.156 0.157 0.338 0.267 0.546 0.332 0.209 0.065 0.43 0.098 0.664 0.098 0.671 0 1.198-0.13 1.583-0.391 0.39-0.267 0.667-0.625 0.83-1.074 0.169-0.449 0.254-0.954 0.254-1.514zM140.517 504.812V492h2.363v15h-2.138zM133.642 501.834v-0.205c0-0.801 0.095-1.53 0.283-2.188 0.189-0.664 0.463-1.233 0.821-1.709 0.358-0.481 0.794-0.849 1.308-1.103 0.515-0.261 1.094-0.391 1.739-0.391 0.638 0 1.197 0.124 1.679 0.371 0.482 0.248 0.892 0.603 1.231 1.065 0.338 0.456 0.608 1.002 0.81 1.64 0.202 0.632 0.345 1.335 0.43 2.11v0.654c-0.085 0.755-0.228 1.445-0.43 2.07s-0.472 1.166-0.81 1.622c-0.339 0.455-0.752 0.807-1.24 1.054-0.482 0.248-1.045 0.371-1.69 0.371-0.638 0-1.214-0.133-1.728-0.4-0.508-0.267-0.941-0.641-1.299-1.123s-0.632-1.048-0.821-1.699c-0.188-0.658-0.283-1.371-0.283-2.139zM135.996 501.629v0.205c0 0.482 0.042 0.931 0.127 1.348 0.091 0.416 0.231 0.784 0.42 1.103 0.188 0.313 0.433 0.56 0.732 0.742 0.306 0.176 0.671 0.264 1.094 0.264 0.534 0 0.973-0.117 1.318-0.352 0.345-0.234 0.615-0.55 0.811-0.947 0.201-0.403 0.338-0.853 0.41-1.347v-1.768c-0.039-0.384-0.121-0.742-0.244-1.074-0.118-0.332-0.277-0.622-0.479-0.869-0.202-0.254-0.452-0.45-0.752-0.586-0.293-0.144-0.641-0.215-1.045-0.215-0.429 0-0.794 0.091-1.093 0.273-0.3 0.183-0.547 0.433-0.743 0.752-0.188 0.319-0.328 0.69-0.42 1.113-0.091 0.424-0.136 0.876-0.136 1.358zM148.261 496.434V507h-2.363v-10.566zM145.741 493.66c0-0.358 0.118-0.654 0.352-0.889 0.241-0.24 0.573-0.361 0.996-0.361 0.417 0 0.746 0.121 0.986 0.361 0.241 0.235 0.362 0.531 0.362 0.889 0 0.352-0.121 0.645-0.362 0.879-0.24 0.234-0.569 0.352-0.986 0.352-0.423 0-0.755-0.118-0.996-0.352-0.234-0.234-0.352-0.527-0.352-0.879zM150.79 501.834v-0.225c0-0.761 0.111-1.468 0.332-2.119 0.221-0.657 0.54-1.227 0.957-1.709 0.423-0.488 0.937-0.866 1.543-1.133 0.612-0.273 1.302-0.41 2.07-0.41 0.775 0 1.465 0.137 2.07 0.41 0.612 0.267 1.13 0.645 1.553 1.133 0.423 0.482 0.746 1.052 0.967 1.709 0.221 0.651 0.332 1.358 0.332 2.119v0.225c0 0.762-0.111 1.468-0.332 2.119s-0.544 1.221-0.967 1.709c-0.423 0.482-0.937 0.859-1.543 1.133-0.605 0.267-1.292 0.4-2.06 0.4-0.775 0-1.468-0.133-2.08-0.4-0.606-0.274-1.12-0.651-1.543-1.133-0.424-0.488-0.746-1.058-0.967-1.709s-0.332-1.357-0.332-2.119zM153.143 501.609v0.225c0 0.475 0.049 0.924 0.147 1.348 0.097 0.423 0.25 0.794 0.459 1.113 0.208 0.319 0.475 0.57 0.801 0.752 0.325 0.182 0.712 0.273 1.162 0.273 0.436 0 0.814-0.091 1.133-0.273 0.325-0.182 0.592-0.433 0.8-0.752 0.209-0.319 0.362-0.69 0.459-1.113 0.104-0.424 0.157-0.873 0.157-1.348v-0.225c0-0.468-0.053-0.911-0.157-1.328-0.097-0.423-0.254-0.797-0.468-1.123-0.209-0.325-0.476-0.579-0.801-0.762-0.319-0.188-0.7-0.283-1.143-0.283s-0.827 0.095-1.152 0.283c-0.319 0.183-0.583 0.437-0.791 0.762-0.209 0.326-0.362 0.7-0.459 1.123-0.098 0.417-0.147 0.86-0.147 1.328zM163.084 505.828c0-0.364 0.124-0.67 0.371-0.918 0.248-0.254 0.583-0.381 1.006-0.381 0.43 0 0.765 0.127 1.006 0.381 0.248 0.248 0.371 0.554 0.371 0.918 0 0.365-0.123 0.671-0.371 0.918-0.241 0.247-0.576 0.371-1.006 0.371-0.423 0-0.758-0.124-1.006-0.371-0.247-0.247-0.371-0.553-0.371-0.918zM173.27 505.32c0.384 0 0.729-0.075 1.035-0.224 0.312-0.157 0.563-0.371 0.752-0.645 0.195-0.273 0.302-0.589 0.322-0.947h2.217c-0.013 0.684-0.215 1.305-0.606 1.865-0.39 0.56-0.908 1.006-1.552 1.338-0.645 0.326-1.358 0.488-2.139 0.488-0.807 0-1.511-0.136-2.11-0.41-0.599-0.28-1.097-0.664-1.494-1.152s-0.696-1.052-0.898-1.69c-0.195-0.638-0.293-1.321-0.293-2.05v-0.342c0-0.729 0.098-1.413 0.293-2.051 0.202-0.645 0.501-1.211 0.898-1.699 0.397-0.489 0.895-0.869 1.494-1.143 0.599-0.28 1.299-0.42 2.1-0.42 0.846 0 1.589 0.17 2.227 0.508 0.638 0.332 1.139 0.798 1.504 1.397 0.371 0.592 0.563 1.282 0.576 2.07h-2.217c-0.02-0.391-0.117-0.742-0.293-1.055-0.169-0.319-0.41-0.573-0.723-0.762-0.306-0.188-0.674-0.283-1.103-0.283-0.475 0-0.869 0.098-1.182 0.293-0.312 0.189-0.557 0.449-0.732 0.782-0.176 0.325-0.303 0.693-0.381 1.103-0.072 0.404-0.108 0.824-0.108 1.26v0.342c0 0.436 0.036 0.859 0.108 1.269 0.071 0.41 0.195 0.778 0.371 1.104 0.182 0.319 0.43 0.576 0.742 0.771 0.313 0.189 0.71 0.283 1.192 0.283zM179.353 501.834v-0.225c0-0.761 0.111-1.468 0.332-2.119 0.222-0.657 0.541-1.227 0.957-1.709 0.423-0.488 0.938-0.866 1.543-1.133 0.612-0.273 1.302-0.41 2.07-0.41 0.775 0 1.465 0.137 2.071 0.41 0.612 0.267 1.129 0.645 1.553 1.133 0.423 0.482 0.745 1.052 0.966 1.709 0.222 0.651 0.332 1.358 0.332 2.119v0.225c0 0.762-0.11 1.468-0.332 2.119-0.221 0.651-0.543 1.221-0.966 1.709-0.424 0.482-0.938 0.859-1.543 1.133-0.606 0.267-1.293 0.4-2.061 0.4-0.775 0-1.468-0.133-2.08-0.4-0.606-0.274-1.12-0.651-1.543-1.133-0.423-0.488-0.745-1.058-0.967-1.709-0.221-0.651-0.332-1.357-0.332-2.119zM181.707 501.609v0.225c0 0.475 0.048 0.924 0.146 1.348 0.098 0.423 0.251 0.794 0.459 1.113s0.475 0.57 0.801 0.752c0.325 0.182 0.713 0.273 1.162 0.273 0.436 0 0.814-0.091 1.133-0.273 0.325-0.182 0.592-0.433 0.801-0.752 0.208-0.319 0.361-0.69 0.459-1.113 0.104-0.424 0.156-0.873 0.156-1.348v-0.225c0-0.468-0.052-0.911-0.156-1.328-0.098-0.423-0.254-0.797-0.469-1.123-0.209-0.325-0.475-0.579-0.801-0.762-0.319-0.188-0.7-0.283-1.143-0.283-0.442 0-0.826 0.095-1.152 0.283-0.319 0.183-0.583 0.437-0.791 0.762-0.208 0.326-0.361 0.7-0.459 1.123-0.098 0.417-0.146 0.86-0.146 1.328zM193.904 498.582V507h-2.354v-10.566h2.217zM193.523 501.326l-0.801-0.01c0-0.729 0.091-1.403 0.273-2.021 0.183-0.619 0.45-1.156 0.801-1.611 0.352-0.463 0.788-0.817 1.309-1.065 0.527-0.254 1.136-0.381 1.826-0.381 0.482 0 0.921 0.072 1.318 0.215 0.404 0.137 0.752 0.355 1.045 0.654 0.3 0.3 0.527 0.684 0.684 1.153 0.162 0.469 0.244 1.035 0.244 1.699V507h-2.354v-6.836c0-0.514-0.078-0.918-0.234-1.211-0.15-0.293-0.368-0.501-0.654-0.625-0.28-0.13-0.616-0.195-1.006-0.195-0.443 0-0.82 0.084-1.133 0.254-0.306 0.169-0.557 0.4-0.752 0.693s-0.338 0.632-0.43 1.016c-0.091 0.384-0.136 0.794-0.136 1.23zM200.075 500.701l-1.103 0.244c0-0.638 0.088-1.24 0.264-1.806 0.182-0.573 0.446-1.075 0.791-1.504 0.351-0.436 0.784-0.778 1.298-1.026 0.515-0.247 1.104-0.371 1.768-0.371 0.54 0 1.022 0.075 1.445 0.225 0.43 0.143 0.795 0.371 1.094 0.683 0.3 0.313 0.527 0.72 0.684 1.221 0.156 0.495 0.234 1.094 0.234 1.797V507h-2.363v-6.846c0-0.534-0.078-0.947-0.235-1.24-0.149-0.293-0.364-0.495-0.644-0.605-0.28-0.118-0.615-0.176-1.006-0.176-0.365 0-0.687 0.068-0.967 0.205-0.273 0.13-0.504 0.316-0.693 0.557-0.189 0.234-0.332 0.504-0.43 0.81-0.091 0.306-0.137 0.638-0.137 0.996z" />
            <rect width="40" height="40" rx="20" x="16" y="560" />
            <g fill="var(--color4, #f4f4fd)" clip-path="url(#clip1_570569_2769)">
                <path d="M47.9765 575.056c-0.0563-1.275-0.2625-2.152-0.5579-2.911-0.3047-0.807-0.7736-1.529-1.3878-2.129-0.6002-0.609-1.3269-1.083-2.1239-1.383-0.7641-0.295-1.6362-0.502-2.9114-0.558-1.2848-0.061-1.6926-0.075-4.9511-0.075-3.2584 0-3.6663 0.014-4.9462 0.07-1.2752 0.057-2.1519 0.263-2.9114 0.558-0.8066 0.305-1.5285 0.774-2.1287 1.388-0.6095 0.6-1.0829 1.327-1.3831 2.124-0.2954 0.764-0.5016 1.636-0.5578 2.911-0.061 1.285-0.0751 1.693-0.0751 4.951 0 3.259 0.0141 3.667 0.0703 4.947 0.0563 1.275 0.2627 2.152 0.5581 2.911 0.3047 0.807 0.7781 1.529 1.3876 2.129 0.6002 0.609 1.3269 1.083 2.1239 1.383 0.7643 0.295 1.6362 0.501 2.9116 0.558 1.2798 0.056 1.6878 0.07 4.9463 0.07 3.2584 0 3.6663-0.014 4.9462-0.07 1.2753-0.057 2.152-0.263 2.9114-0.558 1.613-0.624 2.8882-1.899 3.5118-3.512 0.2952-0.764 0.5016-1.636 0.5578-2.911 0.0562-1.28 0.0703-1.688 0.0703-4.947 0-3.258-47e-4-3.666-0.0609-4.946zM45.8152 584.855c-0.0516 1.172-0.2485 1.805-0.4126 2.227-0.4033 1.046-1.2331 1.875-2.2787 2.279-0.4219 0.164-1.0594 0.361-2.2269 0.412-1.2659 0.056-1.6456 0.07-4.8478 0.07s-3.5866-0.014-4.8479-0.07c-1.1721-0.051-1.8051-0.248-2.227-0.412-0.5203-0.193-0.9939-0.497-1.3783-0.896-0.3985-0.389-0.7033-0.858-0.8956-1.378-0.1641-0.422-0.361-1.06-0.4124-2.227-0.0564-1.266-0.0704-1.646-0.0704-4.848s0.014-3.587 0.0704-4.848c0.0514-1.172 0.2483-1.805 0.4124-2.227 0.1923-0.52 0.4971-0.994 0.9003-1.378 0.389-0.399 0.8579-0.704 1.3783-0.896 0.422-0.164 1.0597-0.361 2.227-0.412 1.2659-0.057 1.6457-0.071 4.8478-0.071 3.207 0 3.5866 0.014 4.8479 0.071 1.1721 0.051 1.8051 0.248 2.227 0.412 0.5203 0.192 0.9939 0.497 1.3783 0.896 0.3985 0.389 0.7033 0.858 0.8956 1.378 0.1641 0.422 0.361 1.06 0.4126 2.227 0.0562 1.266 0.0703 1.646 0.0703 4.848s-0.0141 3.577-0.0703 4.843z" />
                <path d="M36.0445 573.837c-3.4037 0-6.1653 2.762-6.1653 6.165 0 3.404 2.7616 6.166 6.1653 6.166 3.4038 0 6.1652-2.762 6.1652-6.166 0-3.403-2.7614-6.165-6.1652-6.165zM36.0445 584.002c-2.2082 0-3.9993-1.791-3.9993-4 0-2.208 1.7911-3.999 3.9993-3.999 2.2083 0 3.9992 1.791 3.9992 3.999 0 2.209-1.7909 4-3.9992 4z" />
                <path d="M43.893 573.593c0 0.795-0.6445 1.44-1.4395 1.44-0.7948 0-1.4393-0.645-1.4393-1.44s0.6445-1.439 1.4393-1.439c0.795 0 1.4395 0.644 1.4395 1.439z" />
            </g>
            <rect width="40" height="40" rx="20" x="96" y="560" />
            <path fill="var(--color4, #f4f4fd)" d="M121.75 571h3.067l-6.699 7.625L126 589h-6.171l-4.834-6.294-5.531 6.294h-3.069l7.166-8.156L106 571h6.329l4.368 5.751zM120.675 587.173h1.7l-10.971-14.441h-1.823z" />
            <rect width="40" height="40" rx="20" x="176" y="560" />
            <path fill="var(--color4, #f4f4fd)" d="M199.997 571.985h2.191v-3.816c-0.378-0.052-1.678-0.169-3.192-0.169-3.159 0-5.323 1.987-5.323 5.639V577h-3.486v4.266h3.486V592h4.274v-10.733h3.345l0.531-4.266h-3.877v-2.939c1e-3-1.233 0.333-2.077 2.051-2.077z" />
            <rect width="40" height="40" rx="20" x="256" y="560" />
            <g fill="var(--color4, #f4f4fd)" clip-path="url(#clip2_570569_2769)">
                <path d="M287.994 592l6e-3-1e-3v-8.802c0-4.306-0.927-7.623-5.961-7.623-2.42 0-4.044 1.328-4.707 2.587h-0.07v-2.185h-4.773v16.023h4.97v-7.934c0-2.089 0.396-4.109 2.983-4.109 2.549 0 2.587 2.384 2.587 4.243V592z" />
                <path d="M264.396 575.977h4.976V592h-4.976z" />
                <path d="M266.882 568c-1.591 0-2.882 1.291-2.882 2.882s1.291 2.909 2.882 2.909 2.882-1.318 2.882-2.909c-1e-3-1.591-1.292-2.882-2.882-2.882z" />
            </g>
            <defs fill="none">
                <clipPath id="clip0_570569_2769">
                    <rect fill="#fff" transform="translate(280 32)" width="8" height="8" />
                </clipPath>
                <clipPath id="clip1_570569_2769">
                    <rect fill="#fff" transform="translate(24 568)" width="24" height="24" />
                </clipPath>
                <clipPath id="clip2_570569_2769">
                    <rect fill="#fff" transform="translate(264 568)" width="24" height="24" />
                </clipPath>
            </defs>
        </symbol>
        <symbol id="icon-check" viewBox="0 0 16 16" fill="none">
            <rect stroke="var(--color0, #2e2f42)" stroke-opacity="0.4" width="15" height="15" rx="1.5" x="0.5" y="0.5" />
        </symbol>
        <symbol id="icon-person" viewBox="0 0 18 24" fill="none">
            <path fill="var(--color1, #4d5ae5)" d="M9 12c1.6575 0 3-1.3425 3-3s-1.3425-3-3-3-3 1.3425-3 3 1.3425 3 3 3zM9 13.5c-2.0025 0-6 1.005-6 3v0.75C3 17.6625 3.3375 18 3.75 18h10.5c0.4125 0 0.75-0.3375 0.75-0.75V16.5c0-1.995-3.9975-3-6-3z" />
        </symbol>
        <symbol id="icon-phone" viewBox="0 0 18 24" fill="none">
            <path fill="var(--color0, #2e2f42)" d="M14.2263 14.3651l-1.8382-0.2099c-0.4414-0.0506-0.8756 0.1014-1.1868 0.4125l-1.3316 1.3316c-2.048-1.0421-3.7269-2.7138-4.769-4.769l1.3388-1.3389C6.7507 9.4803 6.9026 9.046 6.852 8.6046L6.6421 6.7809C6.5553 6.05 5.9401 5.5 5.202 5.5H3.95c-0.8177 0-1.498 0.6803-1.4473 1.498 0.3835 6.1803 5.3262 11.1158 11.4992 11.4993 0.8178 0.0507 1.498-0.6296 1.498-1.4473v-1.252c73e-4-0.7309-0.5427-1.346-1.2736-1.4329z" />
        </symbol>
        <symbol id="icon-email" viewBox="0 0 18 24" fill="none">
            <path fill="var(--color0, #2e2f42)" d="M15 6H3C2.175 6 1.5075 6.675 1.5075 7.5l-75e-4 9C1.5 17.325 2.175 18 3 18h12c0.825 0 1.5-0.675 1.5-1.5v-9C16.5 6.675 15.825 6 15 6zM14.7 9.1875l-5.3025 3.315c-0.24 0.15-0.555 0.15-0.795 0L3.3 9.1875C3.1125 9.0675 3 8.865 3 8.6475 3 8.145 3.5475 7.845 3.975 8.1075L9 11.25l5.025-3.1425C14.4525 7.845 15 8.145 15 8.6475c0 0.2175-0.1125 0.42-0.3 0.54z" />
        </symbol>
        <symbol id="icon-send" viewBox="0 0 37 13" fill="none">
            <path fill="var(--color2, #fff)" d="M6.5547 9.0703c0-0.2344-0.0365-0.4427-0.1094-0.625-0.0677-0.1823-0.1901-0.349-0.3672-0.5s-0.4271-0.2969-0.75-0.4375C5.0104 7.362 4.6042 7.2135 4.1094 7.0625c-0.5417-0.1667-1.0417-0.3516-1.5-0.5547-0.4531-0.2083-0.849-0.4479-1.1875-0.7187C1.0833 5.513 0.8203 5.1979 0.6328 4.8438 0.4453 4.4844 0.3516 4.0703 0.3516 3.6016c0-0.4636 0.0963-0.8855 0.289-1.2657 0.1979-0.3802 0.4766-0.7083 0.836-0.9843 0.3645-0.2813 0.7942-0.4974 1.289-0.6485 0.4948-0.1562 1.0417-0.2344 1.6407-0.2344 0.8437-1e-4 1.5703 0.1562 2.1796 0.4687C7.2005 1.25 7.6719 1.6693 8 2.1953 8.3333 2.7214 8.5 3.3021 8.5 3.9375H6.5547c0-0.375-0.0807-0.7057-0.2422-0.9922-0.1562-0.2917-0.3958-0.5208-0.7187-0.6875-0.3178-0.1667-0.7214-0.25-1.211-0.25-0.4635 0-0.849 0.0703-1.1562 0.2109S2.6901 2.5495 2.5391 2.7891 2.3125 3.2995 2.3125 3.6016c0 0.2135 0.0495 0.4088 0.1484 0.5859 0.099 0.1719 0.25 0.3333 0.4532 0.4844 0.2031 0.1458 0.4583 0.2838 0.7656 0.414s0.6693 0.2552 1.0859 0.375c0.6302 0.1875 1.1797 0.3959 1.6485 0.625 0.4687 0.224 0.8593 0.4792 1.1718 0.7657s0.5469 0.6119 0.7032 0.9765c0.1562 0.3594 0.2343 0.7682 0.2343 1.2266 0 0.4791-0.0963 0.9115-0.289 1.2969-0.1927 0.3802-0.4688 0.7057-0.8282 0.9765-0.3542 0.2657-0.7813 0.4714-1.2813 0.6172-0.4948 0.1406-1.0469 0.2109-1.6562 0.2109-0.5469 0-1.086-0.0729-1.6172-0.2187-0.5261-0.1458-1.0053-0.3672-1.4375-0.6641-0.4323-0.302-0.7761-0.677-1.0313-1.125C0.1276 9.6953 0 9.1667 0 8.5625h1.9609c0 0.3698 0.0625 0.6849 0.1875 0.9453 0.1302 0.2604 0.3099 0.474 0.5391 0.6406 0.2292 0.1615 0.4948 0.2813 0.7969 0.3594 0.3073 0.0781 0.6354 0.1172 0.9843 0.1172 0.4583 0 0.8411-0.0651 1.1484-0.1953 0.3125-0.1302 0.5469-0.3125 0.7031-0.5469 0.1563-0.2344 0.2344-0.5052 0.2344-0.8125zM14.4369 12.1562c-0.625 0-1.1901-0.1015-1.6953-0.3046-0.5-0.2084-0.9271-0.4974-1.2813-0.8672-0.3489-0.3698-0.6172-0.8047-0.8047-1.3047s-0.2812-1.0391-0.2812-1.6172V7.75c0-0.6615 0.0963-1.2604 0.289-1.7969s0.461-0.9948 0.8047-1.375c0.3438-0.3854 0.75-0.6797 1.2188-0.8828 0.4687-0.2031 0.9765-0.3047 1.5234-0.3047 0.6042 0 1.1328 0.1016 1.586 0.3047 0.4531 0.2031 0.8281 0.4896 1.125 0.8594 0.302 0.3646 0.526 0.7995 0.6718 1.3047 0.1511 0.5052 0.2266 1.0625 0.2266 1.6719v0.8046l-6.5313 0V6.9844l4.6719 0V6.8359c-0.0104-0.3385-0.0781-0.6562-0.2031-0.9531-0.1198-0.2969-0.3047-0.5365-0.5547-0.7187s-0.5833-0.2735-1-0.2735c-0.3125 0-0.5911 0.0677-0.8359 0.2031-0.2396 0.1302-0.4401 0.3203-0.6016 0.5703s-0.2865 0.552-0.375 0.9062c-0.0833 0.349-0.125 0.7422-0.125 1.1797v0.3125c0 0.3698 0.0495 0.7135 0.1484 1.0313 0.1042 0.3125 0.2552 0.5859 0.4532 0.8203 0.1979 0.2343 0.4375 0.4192 0.7187 0.5547 0.2813 0.1302 0.6016 0.1953 0.961 0.1953 0.4531 0 0.8567-0.0912 1.2109-0.2735s0.6614-0.4401 0.9219-0.7734l0.9922 0.9609c-0.1823 0.2657-0.4193 0.5209-0.711 0.7657-0.2917 0.2395-0.6484 0.4348-1.0703 0.5859-0.4167 0.151-0.901 0.2265-1.4531 0.2265zM21.7956 5.3516V12h-1.8828V3.5469l1.7735 0zM21.4597 7.4609l-0.6094-78e-4c52e-4-0.5989 0.0886-1.1484 0.25-1.6484 0.1667-0.5 0.3958-0.9297 0.6875-1.2891 0.2969-0.3594 0.6511-0.6354 1.0625-0.8281 0.4115-0.1979 0.8698-0.2969 1.375-0.2969 0.4063 0 0.7735 0.0573 1.1016 0.1719 0.3333 0.1094 0.6172 0.2891 0.8515 0.5391 0.2396 0.25 0.4219 0.5755 0.5469 0.9765 0.125 0.3959 0.1875 0.8828 0.1875 1.461V12h-1.8906V6.5313c0-0.4063-0.0599-0.7266-0.1797-0.961-0.1146-0.2396-0.2839-0.4088-0.5078-0.5078-0.2188-0.1042-0.4922-0.1562-0.8203-0.1562-0.3229 0-0.612 0.0677-0.8672 0.2031s-0.4714 0.3203-0.6484 0.5547c-0.1719 0.2343-0.3047 0.5052-0.3985 0.8125-0.0937 0.3072-0.1406 0.6354-0.1406 0.9843zM34.6309 10.25V0h1.8907v12h-1.711zM29.1309 7.8672V7.7031c0-0.6406 0.0756-1.2239 0.2266-1.75 0.151-0.5312 0.3698-0.987 0.6563-1.3672 0.2864-0.3854 0.6354-0.6797 1.0468-0.8828 0.4115-0.2083 0.875-0.3125 1.3907-0.3125 0.5104 0 0.9583 0.099 1.3437 0.2969s0.7135 0.4818 0.9844 0.8516c0.2708 0.3645 0.487 0.802 0.6484 1.3125 0.1615 0.5052 0.2761 1.0677 0.3438 1.6875v0.5234c-0.0677 0.6042-0.1823 1.1563-0.3438 1.6563-0.1614 0.5-0.3776 0.9322-0.6484 1.2968-0.2709 0.3646-0.6016 0.6459-0.9922 0.8438-0.3854 0.1979-0.8359 0.2968-1.3516 0.2968-0.5104 0-0.9713-0.1067-1.3828-0.3203-0.4062-0.2135-0.7526-0.513-1.039-0.8984-0.2865-0.3854-0.5053-0.8385-0.6563-1.3594-0.151-0.526-0.2266-1.0963-0.2266-1.7109zM31.0138 7.7031v0.1641c0 0.3854 0.0338 0.7448 0.1015 1.0781 0.0729 0.3334 0.1849 0.6276 0.336 0.8828 0.151 0.25 0.3463 0.4479 0.5859 0.5938 0.2448 0.1406 0.5364 0.2109 0.875 0.2109 0.4271 0 0.7786-0.0937 1.0547-0.2812 0.276-0.1875 0.4922-0.4401 0.6484-0.7579 0.1615-0.323 0.2708-0.6823 0.3281-1.0782v-1.414c-0.0312-0.3073-0.0963-0.5938-0.1953-0.8594-0.0937-0.2656-0.2213-0.4974-0.3828-0.6953-0.1614-0.2031-0.362-0.3594-0.6015-0.4688-0.2344-0.1146-0.5131-0.1719-0.836-0.1719-0.3437 0-0.6354 0.0729-0.875 0.2187s-0.4375 0.3464-0.5937 0.6016c-0.1511 0.2552-0.2631 0.552-0.336 0.8906s-0.1093 0.7005-0.1093 1.0859z" />
        </symbol>
        <symbol id="icon-close" viewBox="0 0 24 24" fill="none">
            <rect fill="var(--color3, #e7e9fc)" width="24" height="24" rx="12" />
            <rect stroke="var(--color0, #2e2f42)" stroke-opacity="0.4" width="23" height="23" rx="11.5" x="0.5" y="0.5" />
            <path fill="var(--color0, #2e2f42)" d="M16 8.8057 15.1943 8 12 11.1943 8.8057 8 8 8.8057 11.1943 12 8 15.1943 8.8057 16 12 12.8057 15.1943 16 16 15.1943 12.8057 12z" />
            <defs>
                <clipPath id="clip0_1065708_1533">
                    <rect fill="#fff" transform="translate(8 8)" width="8" height="8" />
                </clipPath>
            </defs>
        </symbol>
        <symbol id="icon-astronaut" viewBox="0 0 64 64" fill="var(--color1, #4d5ae5)">
            <path d="M63.9481 9.0481c-0.1259-0.3851-0.4587-0.6666-0.8608-0.7254L59.2665 7.767 57.5566 4.3046c-0.3584-0.7297-1.5541-0.7297-1.9125-1e-4L53.9342 7.767l-3.821 0.5559c-0.4021 0.0586-0.7348 0.3392-0.8618 0.7253-0.1248 0.3861-0.0214 0.8106 0.2698 1.0933l2.766 2.6956-0.6528 3.8059c-0.0683 0.4 0.096 0.8043 0.4235 1.0433 0.3318 0.2411 0.7648 0.2709 1.1243 0.081l3.4176-1.7974 3.4177 1.7974c0.1558 0.0821 0.3275 0.1226 0.4971 0.1226 0.2208 0 0.4417-0.0682 0.6273-0.2037 0.3285-0.2389 0.4928-0.6433 0.4235-1.0433l-0.6527-3.8059 2.7659-2.6956c0.2897-0.2837 0.3944-0.7073 0.2695-1.0934zM59.0223 11.702c-0.2507 0.2443-0.3659 0.5984-0.3062 0.9441l0.3819 2.2282-2.001-1.0517c-0.1558-0.0822-0.3264-0.1227-0.4972-0.1227-0.1706 0-0.3402 0.0405-0.4971 0.1227l-2.0011 1.0517 0.3818-2.2282c0.0598-0.3457-0.0555-0.6987-0.3061-0.9441l-1.6203-1.5786 2.2379-0.3254c0.3478-0.0501 0.6476-0.2687 0.8033-0.5835l1.0005-2.0267 1.0005 2.0266c0.1558 0.3146 0.4555 0.5334 0.8033 0.5835l2.2379 0.3254z" />
            <path d="M52.2669 41.0444h-2.1334v2.1334h2.1334z" />
            <path d="M52.2669 45.3112h-2.1334v2.1334h2.1334z" />
            <path d="M54.4004 43.1778h-2.1335v2.1334h2.1335z" />
            <path d="M50.1335 43.1778h-2.1333v2.1334h2.1333z" />
            <path d="M44.8001 52.778h-2.1334v2.1333h2.1334z" />
            <path d="M44.8001 57.0446h-2.1334v2.1334h2.1334z" />
            <path d="M46.9336 54.9114l-2.1335-1e-4v2.1333l2.1335 2e-4z" />
            <path d="M42.6667 54.9113l-2.1334 1e-4v2.1334l2.1334-2e-4z" />
            <path d="M32 48.5113h-2.1334v2.1334H32z" />
            <path d="M32 52.778h-2.1334v2.1333H32z" />
            <path d="M34.1334 50.6445 32 50.6447v2.1333l2.1334-1e-4z" />
            <path d="M29.8666 50.6447l-2.1334-2e-4v2.1334l2.1334 1e-4z" />
            <path d="M11.733 12.244H9.5996l0 2.1334h2.1334z" />
            <path d="M11.733 16.5107H9.5996l0 2.1335h2.1334z" />
            <path d="M13.8663 14.3774H11.733v2.1333l2.1333 1e-4z" />
            <path d="M9.5996 14.3774H7.4662l0 2.1334 2.1334-1e-4z" />
            <path fill="var(--color0, #2e2f42)" d="M49.4295 28.3189c-0.5749-0.7755-1.4186-1.2746-2.3765-1.4091-0.9622-0.1365-1.9116 0.1162-2.6796 0.704l-2.5035 1.9189-11e-4 11e-4-3.7954 2.8342-2.7157-1.0817c4.8427-2.1728 8.2273-7.0166 8.2273-12.6402 0-7.646-6.2454-13.8668-13.9223-13.8668s-13.9222 6.2208-13.9222 13.8668c0 2.7713 0.8287 5.3484 2.24 7.5169l-5.5276-0.048c-32e-4 0-64e-4 0-96e-4 0-0.0171 0-0.0309 85e-4-0.0469 96e-4-0.1056 43e-4-0.2091 0.0257-0.3104 0.0619-0.0256 96e-4-0.0522 0.015-0.0767 0.0266-0.0128 54e-4-0.0256 64e-4-0.0384 0.0128l-6.4662 3.1925c-11e-4 0-21e-4 0-21e-4 1e-3l-3.7868 1.8211c-0.0417 0.0181-0.0843 0.0426-0.1259 0.0703-1.5094 1.0048-2.0236 2.9782-1.1968 4.591 0.4405 0.8576 1.1904 1.4891 2.112 1.7781 0.3553 0.1109 0.7179 0.1654 1.0784 0.1654 0.5793 0 1.1532-0.1419 1.6789-0.4224l2.7756-1.4762 4.528-2.3382 2.7137-0.016L4.3963 44.4237c-1e-3 11e-4-21e-4 11e-4-33e-4 21e-4l-2.6774 2.6666c-0.6325 0.6294-0.9802 1.4646-0.9802 2.3553 0 0.8897 0.3477 1.7269 0.9802 2.3574 0.6497 0.6464 1.5041 0.9707 2.3584 0.9707 0.8556 0 1.7088-0.3243 2.3606-0.9707l2.6283-2.6176 3.4816-2.5996 1.8017 1.7942-3.5233 3.5083c-1e-3 11e-4-21e-4 11e-4-33e-4 21e-4l-2.6774 2.6667c-0.6325 0.6294-0.9802 1.4645-0.9802 2.3553 0 0.8896 0.3477 1.7269 0.9802 2.3574 0.6497 0.6464 1.5052 0.9706 2.3596 0.9706 0.8544 0 1.7099-0.3242 2.3605-0.9706l6.9632-6.9334c12e-4-11e-4 12e-4-21e-4 22e-4-32e-4l2.0192-2.0001-75e-4-75e-4c0.0128-0.0127 0.0309-0.0171 0.0438-0.0308l10.3319-11.3165 6.942 0.9878c0.0501 75e-4 0.1002 0.0106 0.1504 0.0106 0.1291 0 0.2538-0.0308 0.3744-0.0767 0.0352-0.0128 0.0661-0.0299 0.0992-0.0469 0.0384-0.0192 0.0789-0.0299 0.1153-0.0544l6.4267-4.2667c0.0235-0.016 0.0362-0.0416 0.0586-0.0586 0.0256-0.0202 0.0576-0.0287 0.081-0.0512l2.5429-2.3819c1.3232-1.2398 1.5055-3.2707 0.4239-4.7235zM4.2608 35.5403c-0.3466 0.1856-0.7403 0.2228-1.1168 0.1035-0.3734-0.1163-0.6762-0.3713-0.8534-0.7158-0.3221-0.6272-0.1355-1.391 0.4288-1.8038l2.6273-1.264 0.8981 2.6251zM11.255 31.8848 8.1585 33.4849 7.2807 30.9183l4.0535-2.0011zM41.4539 18.644c0 1.8368-0.4384 3.5692-1.1979 5.119l-8.3628-3.7985c-0.0875-1.1466-0.6826-2.1504-1.5765-2.7755l2.928-9.7207c4.7554 1.5127 8.2092 5.949 8.2092 11.1757zM17.876 18.644c0-6.4695 5.2886-11.7336 11.7889-11.7336 0.5057-1e-4 1.0006 0.0426 1.4902 0.1045l-2.8641 9.5074c-0.0383-12e-4-0.0746-0.0118-0.1141-0.0118-2.0651 0-3.7452 1.6747-3.7452 3.7334s1.6801 3.7335 3.7452 3.7335c1.3888 0 2.5888-0.7669 3.2363-1.8892l7.7249 3.5094c-2.1494 2.8928-5.5895 4.7799-9.4733 4.7799-6.5002 0-11.7888-5.2641-11.7888-11.7336zM29.7887 20.244c0 0.8822-0.7233 1.6001-1.6118 1.6001s-1.6118-0.7179-1.6118-1.6001c0-0.8821 0.7233-1.6 1.6118-1.6s1.6118 0.7179 1.6118 1.6zM4.9297 50.2925c-0.4725 0.4683-1.2374 0.4673-1.7088 11e-4-0.2273-0.2272-0.352-0.5269-0.352-0.8459 0-0.3178 0.1248-0.6176 0.352-0.8426l1.9242-1.9169 1.7024 1.695zM11.3574 57.7594c-0.4725 0.4682-1.2384 0.4693-1.7099 11e-4-0.2273-0.2273-0.352-0.5269-0.352-0.8459 0-0.3179 0.1247-0.6176 0.352-0.8426l1.9254-1.9179 1.7035 1.695zM18.3208 50.8216c-12e-4 1e-3-22e-4 1e-3-33e-4 22e-4l-3.5297 3.52-1.7035-1.695 3.5264-3.5104c0 0 0 0 0-1e-3 12e-4-12e-4 22e-4-12e-4 33e-4-22e-4 0.08-0.08 0.1301-0.176 0.1792-0.2709 0.0139-0.0277 0.0405-0.0512 0.0523-0.08 0.0331-0.0821 0.0384-0.1706 0.0512-0.2571 64e-4-0.0491 0.0278-0.0949 0.0278-0.1451 0-0.0715-0.0256-0.1408-0.0405-0.2113-0.0128-0.064-0.0128-0.1291-0.0374-0.1908-0.0405-0.1003-0.1099-0.1888-0.1824-0.2753-0.0202-0.0235-0.0277-0.0534-0.0501-0.0757 0 0 0 0-11e-4 0-11e-4-1e-3-11e-4-33e-4-21e-4-43e-4l-3.214-3.2c-0.0341-0.0342-0.0778-0.048-0.1162-0.0768-0.0565-0.0437-0.1109-0.0842-0.1739-0.1152-0.0607-0.0299-0.1226-0.048-0.1866-0.0652-0.0683-0.0192-0.1344-0.0341-0.2059-0.0395-0.0651-42e-4-0.1259 22e-4-0.1909 97e-4-0.0715 85e-4-0.1386 0.0181-0.208 0.0405-0.0672 0.0213-0.1269 0.0543-0.1887 0.0896-0.0395 0.0224-0.0843 0.0299-0.1217 0.0576l-3.5466 2.6475-1.8017-1.7941 4.798-4.7723 8.7212 8.5772zM31.9584 36.7883c-0.0309-43e-4-0.0598 75e-4-0.0907 54e-4-0.0779-43e-4-0.1525 11e-4-0.2304 0.0138-0.0607 0.0107-0.1183 0.0224-0.176 0.0427-0.0682 0.0235-0.1301 0.0555-0.1931 0.0938-0.0597 0.0363-0.1141 0.0747-0.1664 0.1227-0.0256 0.0223-0.0565 0.0331-0.08 0.0586l-9.3965 10.2914-8.6561-8.5133 5.6662-5.6363c0.4171-0.416 0.4192-1.0913 32e-4-1.5094-0.2101-0.2101-0.4863-0.3136-0.7626-0.3125l-4.4374 0.0256 0.0555-3.2149 6.2081 0.0534c2.5301 2.5878 6.0587 4.2017 9.9627 4.2017 0.8747 0 1.7281-0.0907 2.559-0.2454 0.08 0.064 0.1588 0.1291 0.2592 0.1696l4.8193 1.9201 0.6613 3.2874zM40.0406 37.1445l-0.6261-3.1158 2.8928-2.16 1.8934 2.5131zM47.5478 31.4826l-1.6757 1.5701-1.8624-2.4725 1.6629-1.2747c0.3103-0.2388 0.7019-0.336 1.0859-0.2858 0.3861 0.0543 0.7275 0.256 0.96 0.5685 0.4331 0.5835 0.3595 1.3974-0.1707 1.8944z" />
            <path fill="var(--color0, #2e2f42)" d="M27.2041 37.0881l-4.2859-4.2667c-0.4149-0.4149-1.0892-0.4149-1.5052 0l-4.2848 4.2667c-0.2005 0.2016-0.3136 0.4725-0.3136 0.7563 0 0.2837 0.112 0.5557 0.3136 0.7562l4.2848 4.2667c0.208 0.2069 0.4812 0.3104 0.7532 0.3104s0.545-0.1035 0.752-0.3104l4.2859-4.2667c0.2005-0.2005 0.3146-0.4725 0.3146-0.7562 0-0.2838-0.1131-0.5558-0.3146-0.7563zM22.1662 40.606l-2.7735-2.7616 2.7735-2.7617 2.7744 2.7617z" />
            <path fill="var(--color0, #2e2f42)" d="M34.3285 10.1415l-0.5153 2.0716c0.1419 0.0352 3.4753 0.9035 3.4753 4.2977h2.1334c-1e-4-4.0343-3.3313-5.9309-5.0934-6.3693z" />
            <path fill="var(--color0, #2e2f42)" d="M39.422 18.644h-2.1334v2.1335h2.1334z" />
        </symbol>
        <symbol id="icon-diagram" viewBox="0 0 64 64" fill="none">
            <g fill="var(--color1, #4d5ae5)" clip-path="url(#clip0_1065735_1558)">
                <path d="M29.851 29.9292h2.1323v9.595H29.851z" />
                <path d="M38.3799 34.1936h2.1322v5.3306h-2.1322z" />
                <path d="M21.3222 37.392h2.1322v2.1322h-2.1322z" />
                <path d="M14.9255 36.3258h2.1322v3.1983h-2.1322z" />
                <path fill="var(--color0, #2e2f42)" d="M3.1983 56.5819h51.1732c1.7663 0 3.1984-1.432 3.1984-3.1983v-4.2644c0-1.7663-1.4321-3.1984-3.1984-3.1984h-1.0661V19.3342l6.0557-5.7366c1.4055 0.6929 3.1067 0.2723 4.0265-0.9973 0.9204-1.2692 0.7913-3.0167-0.305-4.1369S60.2424 7.176 58.953 8.0677c-1.2889 0.8923-1.747 2.5836-1.0849 4.0042l-4.5627 4.3253v-2.4596c0-1.7663-1.432-3.1983-3.1983-3.1983H7.4628c-1.7663 0-3.1984 1.432-3.1984 3.1983l0 31.9832H3.1983C1.4321 45.9208 0 47.3529 0 49.1192v4.2644c0 1.7663 1.4321 3.1983 3.1983 3.1983zM60.7682 9.6731c0.5887 0 1.0661 0.4774 1.0661 1.0662 0 0.5887-0.4774 1.0661-1.0661 1.0661-0.5888 0-1.0661-0.4774-1.0661-1.0661 0-0.5888 0.4773-1.0662 1.0661-1.0662zM6.3967 13.9376c0-0.5888 0.4773-1.0661 1.0661-1.0661h42.6443c0.5887 0 1.0661 0.4773 1.0661 1.0661v4.4773l-2.1322 2.026v-4.3711c0-0.5888-0.4774-1.0661-1.0661-1.0661H9.595c-0.5888 0-1.0661 0.4773-1.0661 1.0661l0 26.6527c0 0.5888 0.4773 1.0661 1.0661 1.0661h38.3799c0.5887 0 1.0661-0.4773 1.0661-1.0661V23.3738l2.1322-2.0203v24.5673H6.3967zM15.9916 27.797c-1.4424-42e-4-2.709 0.9568-3.0926 2.3472-0.3837 1.3904 0.2103 2.8652 1.4508 3.6012 1.24 0.7361 2.8199 0.5513 3.8563-0.4518l3.7059 1.8594c0.4305 0.2155 0.9526 0.1146 1.2727-0.2452l7.8777-8.8625 7.7438 5.8027c0.4154 0.3113 0.9954 0.278 1.3722-0.0786l6.7304-6.3753v16.2623H10.6611V17.1359h36.2477v5.3207l-7.543 7.1431-7.8089-5.8542c-0.4435-0.3322-1.0677-0.2697-1.4362 0.1442l-7.9859 8.9854-2.9855-1.493c0.0219-0.1281 0.0354-0.2572 0.0407-0.3868 0-1.7662-1.4321-3.1983-3.1984-3.1983zM17.0577 30.9953c0 0.5888-0.4773 1.0661-1.0661 1.0661-0.5887 0-1.0661-0.4773-1.0661-1.0661 0-0.5887 0.4774-1.0661 1.0661-1.0661 0.5888 0 1.0661 0.4774 1.0661 1.0661zM23.4544 48.0531h10.6611v1.0661c0 0.5887-0.4774 1.0661-1.0661 1.0661h-8.5289c-0.5888 0-1.0661-0.4774-1.0661-1.0661zM2.1322 49.1192c0-0.5888 0.4774-1.0661 1.0661-1.0661h18.1239v1.0661c0 1.7662 1.432 3.1983 3.1983 3.1983h8.5289c1.7662 0 3.1983-1.4321 3.1983-3.1983v-1.0661h18.1238c0.5888 0 1.0661 0.4773 1.0661 1.0661v4.2644c0 0.5887-0.4773 1.0661-1.0661 1.0661H3.1983c-0.5887 0-1.0661-0.4774-1.0661-1.0661z" />
            </g>
            <defs>
                <clipPath id="clip0_1065735_1558">
                    <rect fill="#fff" width="64" height="64" />
                </clipPath>
            </defs>
        </symbol>
        <symbol id="icon-clock" viewBox="0 0 64 64" fill="var(--color1, #4d5ae5)">
            <path fill="var(--color0, #2e2f42)" d="M62.5933 30.6025C62.5899 13.6978 48.8828-34e-4 31.9776 0 15.0728 34e-4 1.3716 13.7109 1.375 30.6157c3e-3 13.3159 8.6138 25.1021 21.2989 29.1524 0.121 0.0381 0.247 0.0576 0.3735 0.0571 0.2412-5e-4 0.4775-0.0649 0.685-0.1875 0.2701-0.1597 0.4717-0.4136 0.5665-0.7129l7.7299-24.5c2.1133-0.0107 3.8174-1.7329 3.8062-3.8457-0.0108-2.1133-1.7324-3.8174-3.8457-3.8066-0.5684 24e-4-1.1294 0.1333-1.6402 0.3828L20.1372 16.9419c-0.5068-0.4893-1.3139-0.4751-1.8032 0.0312-0.4775 0.4947-0.4775 1.2779 0 1.7725l10.2066 10.2183c-0.7832 1.5986-0.3355 3.5283 1.0727 4.6181l-7.3652 23.3457C7.6924 51.5659 0.2393 35.4199 5.6011 20.8643 10.9629 6.3086 27.1089-1.1445 41.6646 4.2173c14.5556 5.3618 22.0088 21.5083 16.647 36.0635-2.6197 7.1113-8.002 12.8623-14.9244 15.9467l-0.7959-3.7485c-0.1455-0.689-0.8227-1.1294-1.5117-0.9834-0.2173 0.0464-0.4189 0.1485-0.5849 0.2964l-7.6739 6.8511c-0.5263 0.4682-0.5732 1.2744-0.1045 1.8008 0.1524 0.1709 0.3477 0.2978 0.5664 0.3676l9.7974 3.127c0.6704 0.2153 1.3887-0.1533 1.604-0.8242 0.0684-0.2119 0.0796-0.4375 0.0337-0.6553l-0.7822-3.6782c11.3286-4.7759 18.6841-15.8843 18.6577-28.1783zM31.9844 29.3272c0.7041 0 1.2754 0.5712 1.2754 1.2753 0 0.7046-0.5713 1.2754-1.2754 1.2754-0.7046 0-1.2754-0.5708-1.2754-1.2754 0-0.7041 0.5708-1.2753 1.2754-1.2753zM36.1851 59.0552l4.3681-3.8965 1.2056 5.6807z" />
            <path d="M30.709 6.3701v2.5508c0 0.7046 0.5708 1.2754 1.2754 1.2754 0.7041 0 1.2754-0.5708 1.2754-1.2754V6.3701c0-0.7041-0.5713-1.2754-1.2754-1.2754-0.7046 0-1.2754 0.5713-1.2754 1.2754z" />
            <path d="M7.752 29.3271c-0.7046 0-1.2754 0.5713-1.2754 1.2754 0 0.7046 0.5708 1.2754 1.2754 1.2754h2.5508c0.7045 0 1.2753-0.5708 1.2753-1.2754 0-0.7041-0.5708-1.2754-1.2753-1.2754z" />
            <path d="M56.2163 31.8779c0.7046 0 1.2754-0.5708 1.2754-1.2754 0-0.7041-0.5708-1.2754-1.2754-1.2754h-2.5508c-0.7041 0-1.2754 0.5713-1.2754 1.2754 0 0.7046 0.5713 1.2754 1.2754 1.2754z" />
        </symbol>
        <symbol id="icon-antenna" viewBox="0 0 64 64" fill="none">
            <path fill="var(--color0, #2e2f42)" d="M61.5463 44.1952 44.6599 27.1851l1.8741-9.231c0.4836 0.1888 0.9978 0.2875 1.5168 0.2912h0.0128c2.3846 0.0282 4.3404-1.882 4.3687-4.2665s-1.882-4.3404-4.2665-4.3687c-2.3846-0.0281-4.3404 1.882-4.3687 4.2666-6e-3 0.5102 0.0784 1.0174 0.2495 1.4982l-9.92 1.2107L17.9452 0.32C17.7467 0.1175 17.4757 23e-4 17.1921 0c-0.28 15e-4-0.5481 0.1129-0.7466 0.3104l-3.0251 3.008c-0.4164 0.4165-0.4164 1.0917 0 1.5083l1.6277 1.6512c-6.3061 11.5958-4.2578 25.9556 5.039 35.3258 0.0853 0.0816 0.1842 0.1476 0.2922 0.1952-0.0672 0.361-0.1022 0.7272-0.1045 1.0944v12.3734h-12.8C4.5308 55.4701 2.145 57.856 2.1415 60.8l0 2.1333C2.1415 63.5224 2.6191 64 3.2082 64h49.0666c0.5891 0 1.0667-0.4776 1.0667-1.0667V60.8c-35e-4-2.944-2.3893-5.3299-5.3333-5.3333h-12.8v-5.4838c2.0052 0.4206 4.0482 0.635 6.097 0.64 4.9163-53e-4 9.7543-1.2309 14.08-3.5669l1.6363 1.6459c0.1985 0.2025 0.4695 0.3177 0.7531 0.32 0.28-15e-4 0.5481-0.113 0.7466-0.3104l3.0251-3.008c0.4164-0.4166 0.4164-1.0918 0-1.5083zM46.5596 12.4661c0.8354-0.8309 2.1862-0.8272 3.017 82e-4 0.8309 0.8353 0.8272 2.1861-82e-4 3.0169-0.3998 0.3977-0.9409 0.6209-1.5049 0.6208h-64e-4c-1.1781-61e-4-2.1284-0.9661-2.1223-2.1444 3e-3-0.564 0.2291-1.1037 0.629-1.5015zM44.0487 19.4752l-1.1968 5.8912-2.351-2.3648zM42.837 17.6715l-3.84 3.8176-2.9707-2.9867zM48.0082 57.6c1.7673 0 3.2 1.4327 3.2 3.2v1.0667H4.2748l0-1.0667c0-1.7673 1.4327-3.2 3.2-3.2zM33.0748 53.3333v2.1334H22.4081v-2.1334zM22.4081 51.2v-8.1067c0-2.5877 2.3926-4.6933 5.3334-4.6933s5.3333 2.1056 5.3333 4.6933V51.2zM35.2082 47.808v-4.7147c0-3.7642-3.3494-6.8266-7.4667-6.8266-2.6622-0.0408-5.1515 1.3142-6.5622 3.5722-8.1154-8.5476-9.9429-21.2904-4.5572-31.7742l37.2037 37.4169c-5.7448 2.9224-12.3303 3.7452-18.6176 2.3264zM57.7863 46.4405 17.1815 5.5915 15.6721 4.0789l1.5094-1.504 15.8698 15.9595c75e-4 0 0.0118 0.0139 0.0193 0.0192l26.2293 26.3829z" />
            <path fill="var(--color1, #4d5ae5)" d="M27.7511 40.5333h-96e-4c-1.7673-26e-4-3.2021 1.4279-3.2048 3.1952-27e-4 1.7674 1.4279 3.2022 3.1952 3.2048h96e-4c1.7673 27e-4 3.2021-1.4278 3.2048-3.1952 26e-4-1.7673-1.4279-3.2021-3.1952-3.2048zM28.4978 44.4896c-0.2008 0.1997-0.473 0.3115-0.7563 0.3104-0.5891-31e-4-1.0641-0.4831-1.0611-1.0721 15e-4-0.282 0.1146-0.5519 0.3144-0.7508 0.1986-0.1975 0.4667-0.309 0.7467-0.3104 0.5891 3e-3 1.0641 0.483 1.0611 1.0721-15e-4 0.282-0.1146 0.5519-0.3144 0.7508z" />
        </symbol>
        <symbol id="icon-twitter" viewBox="0 0 32 32" fill="currentColor" xmlns:xlink="http://www.w3.org/1999/xlink">
            <path d="M18.2342 14.1624 26.9766 4h-2.0717l-7.591 8.8238L11.251 4H4.2581l9.1684 13.3432L4.2581 28h2.0718l8.0163-9.3183L20.7491 28h6.9929l-9.5083-13.8376zM15.3966 17.4608l-0.9289-1.3287L7.0763 5.5596h3.1822l5.9649 8.5323 0.9289 1.3287 7.7536 11.0907h-3.1822l-6.3272-9.05z" />
        </symbol>
        <symbol id="icon-linkedin" viewBox="0 0 32 32" fill="currentColor" xmlns:xlink="http://www.w3.org/1999/xlink">
            <path d="M26.2 4H5.8C4.8 4 4 4.8 4 5.7v20.5c0 0.9 0.8 1.7 1.8 1.7h20.4c1 0 1.8-0.8 1.8-1.7V5.7C28 4.8 27.2 4 26.2 4zM11.1 24.4H7.6V13h3.5zM9.4 11.4c-1.1 0-2.1-0.9-2.1-2.1s0.9-2.1 2.1-2.1c1.1 0 2.1 0.9 2.1 2.1s-1 2.1-2.1 2.1zM24.5 24.3H21v-5.6c0-1.3 0-3.1-1.9-3.1S17 17.1 17 18.5v5.7h-3.5V13h3.3v1.5h0.1c0.5-0.9 1.7-1.9 3.4-1.9 3.6 0 4.3 2.4 4.3 5.5v6.2z" />
        </symbol>
        <symbol id="icon-facebook" viewBox="0 0 24 24" stroke-width="2" stroke="currentColor" stroke-linecap="round" stroke-linejoin="round" fill="none" xmlns:xlink="http://www.w3.org/1999/xlink">
            <path d="M18 2h-3a5 5 0 0 0-5 5v3H7v4h3v8h4v-8h3l1-4h-4V7a1 1 0 0 1 1-1h3z" />
        </symbol>
        <symbol id="icon-instagram" viewBox="0 0 32 32" fill="currentColor" xmlns:xlink="http://www.w3.org/1999/xlink">
            <circle cx="22.4056" cy="9.5944" r="1.44" />
            <path d="M16 9.8378A6.1622 6.1622 0 1 0 22.1622 16 6.1622 6.1622 0 0 0 16 9.8378zM16 20a4 4 0 1 1 4-4 4 4 0 0 1-4 4z" />
            <path d="M16 6.1622c3.2041 0 3.5837 0.0122 4.849 0.07a6.6418 6.6418 0 0 1 2.2283 0.4132 3.9748 3.9748 0 0 1 2.2774 2.2774 6.6418 6.6418 0 0 1 0.4132 2.2283c0.0577 1.2653 0.07 1.6449 0.07 4.849s-0.0122 3.5837-0.07 4.849a6.6418 6.6418 0 0 1-0.4132 2.2283 3.9748 3.9748 0 0 1-2.2774 2.2774 6.6418 6.6418 0 0 1-2.2283 0.4132c-1.2652 0.0577-1.6446 0.07-4.849 0.07s-3.5838-0.0122-4.849-0.07a6.6418 6.6418 0 0 1-2.2283-0.4132 3.9748 3.9748 0 0 1-2.2774-2.2774 6.6418 6.6418 0 0 1-0.4132-2.2283c-0.0577-1.2653-0.07-1.6449-0.07-4.849s0.0122-3.5837 0.07-4.849a6.6418 6.6418 0 0 1 0.4132-2.2283 3.9748 3.9748 0 0 1 2.2774-2.2775 6.6418 6.6418 0 0 1 2.2283-0.4132c1.2653-0.0577 1.6449-0.07 4.849-0.07M16 4c-3.259 0-3.6677 0.0138-4.9476 0.0722A8.8068 8.8068 0 0 0 8.14 4.63 6.1363 6.1363 0 0 0 4.63 8.14a8.8068 8.8068 0 0 0-0.5578 2.9129C4.0138 12.3323 4 12.741 4 16s0.0138 3.6677 0.0722 4.9476A8.8074 8.8074 0 0 0 4.63 23.8605a6.1363 6.1363 0 0 0 3.51 3.51 8.8068 8.8068 0 0 0 2.9129 0.5578C12.3323 27.9862 12.741 28 16 28s3.6677-0.0138 4.9476-0.0722a8.8074 8.8074 0 0 0 2.9129-0.5578 6.1363 6.1363 0 0 0 3.51-3.51 8.8074 8.8074 0 0 0 0.5578-2.9129C27.9862 19.6677 28 19.259 28 16s-0.0138-3.6677-0.0722-4.9476A8.8068 8.8068 0 0 0 27.37 8.14a6.1363 6.1363 0 0 0-3.51-3.5095 8.8074 8.8074 0 0 0-2.9129-0.5578C19.6677 4.0138 19.259 4 16 4z" />
        </symbol>
    </defs>
</svg>